<svg version="1.1" viewBox="0.0 0.0 960.0 720.0" fill="none" stroke="none" stroke-linecap="square" stroke-miterlimit="10" xmlns:xlink="http://www.w3.org/1999/xlink" xmlns="http://www.w3.org/2000/svg"><clipPath id="p.0"><path d="m0 0l960.0 0l0 720.0l-960.0 0l0 -720.0z" clip-rule="nonzero"/></clipPath><g clip-path="url(#p.0)"><path fill="#000000" fill-opacity="0.0" d="m0 0l960.0 0l0 720.0l-960.0 0z" fill-rule="evenodd"/><path fill="#000000" d="m-6.866142 -4.6299214l966.86615 0l0 729.2599l-966.86615 0z" fill-rule="evenodd"/><path stroke="#000000" stroke-width="1.0" stroke-linejoin="round" stroke-linecap="butt" d="m-6.866142 -4.6299214l966.86615 0l0 729.2599l-966.86615 0z" fill-rule="evenodd"/><path fill="#000000" fill-opacity="0.0" d="m-0.097112864 2.937008l960.0 0l0 730.4252l-960.0 0z" fill-rule="evenodd"/><path fill="#8db971" d="m23.465387 52.793255l-2.453125 0q-0.640625 0 -0.640625 -0.75l0 -8.53125q0 -0.75 0.640625 -0.75l2.453125 0q0.640625 0 0.640625 0.75l0 8.53125q0 0.75 -0.640625 0.75zm6.015625 -5.546875q0.109375 -15.203125 -7.25 -15.203125q-7.359375 0 -7.25 15.203125q-0.109375 15.25 7.25 15.25q7.359375 0 7.25 -15.25zm3.624998 0q0 18.609371 -10.812498 18.609371q-10.9375 0 -10.9375 -18.609371q0 -6.828125 2.078125 -12.046875q3.046875 -6.5625 8.859375 -6.5625q5.640625 0 8.796875 6.5625q1.0624981 2.609375 1.5312481 5.96875q0.484375 3.359375 0.484375 6.078125zm19.320267 17.656246q0 0.734375 -0.75 0.734375l-2.1875 0q-0.75 0 -0.75 -0.734375l0 -31.468746q-1.65625 1.390625 -3.09375 2.625q-1.4375 1.21875 -3.03125 2.59375q-0.59375 0.484375 -1.078125 -0.09375l-1.0625 -1.28125q-0.15625 -0.265625 -0.15625 -0.5625q0 -0.296875 0.265625 -0.515625l8.265625 -6.921875q0.203125 -0.21875 0.640625 -0.21875l1.4375 0q1.125 0 1.3125 0.1875q0.1875 0.1875 0.1875 1.3125l0 34.343746zm24.367142 -12.109371l-2.453125 0q-0.640625 0 -0.640625 -0.75l0 -8.53125q0 -0.75 0.640625 -0.75l2.453125 0q0.640625 0 0.640625 0.75l0 8.53125q0 0.75 -0.640625 0.75zm6.015625 -5.546875q0.109375 -15.203125 -7.25 -15.203125q-7.359375 0 -7.25 15.203125q-0.109375 15.25 7.25 15.25q7.359375 0 7.25 -15.25zm3.625 0q0 18.609371 -10.8125 18.609371q-10.9375 0 -10.9375 -18.609371q0 -6.828125 2.078125 -12.046875q3.046875 -6.5625 8.859375 -6.5625q5.640625 0 8.796875 6.5625q1.0625 2.609375 1.53125 5.96875q0.484375 3.359375 0.484375 6.078125zm19.320267 17.656246q0 0.734375 -0.75 0.734375l-2.1875 0q-0.75 0 -0.75 -0.734375l0 -31.468746q-1.65625 1.390625 -3.09375 2.625q-1.4375 1.21875 -3.03125 2.59375q-0.59375 0.484375 -1.078125 -0.09375l-1.0625 -1.28125q-0.15625 -0.265625 -0.15625 -0.5625q0 -0.296875 0.265625 -0.515625l8.265625 -6.921875q0.203125 -0.21875 0.640625 -0.21875l1.4375 0q1.125 0 1.3125 0.1875q0.1875 0.1875 0.1875 1.3125l0 34.343746zm24.36715 -12.109371l-2.4531326 0q-0.640625 0 -0.640625 -0.75l0 -8.53125q0 -0.75 0.640625 -0.75l2.4531326 0q0.640625 0 0.640625 0.75l0 8.53125q0 0.75 -0.640625 0.75zm6.015625 -5.546875q0.109375 -15.203125 -7.25 -15.203125q-7.3593826 0 -7.2500076 15.203125q-0.109375 15.25 7.2500076 15.25q7.359375 0 7.25 -15.25zm3.625 0q0 18.609371 -10.8125 18.609371q-10.937508 0 -10.937508 -18.609371q0 -6.828125 2.078125 -12.046875q3.046875 -6.5625 8.859383 -6.5625q5.640625 0 8.796875 6.5625q1.0625 2.609375 1.53125 5.96875q0.484375 3.359375 0.484375 6.078125zm17.023392 5.546875l-2.453125 0q-0.640625 0 -0.640625 -0.75l0 -8.53125q0 -0.75 0.640625 -0.75l2.453125 0q0.640625 0 0.640625 0.75l0 8.53125q0 0.75 -0.640625 0.75zm6.015625 -5.546875q0.109375 -15.203125 -7.25 -15.203125q-7.359375 0 -7.25 15.203125q-0.109375 15.25 7.25 15.25q7.359375 0 7.25 -15.25zm3.625 0q0 18.609371 -10.8125 18.609371q-10.9375 0 -10.9375 -18.609371q0 -6.828125 2.078125 -12.046875q3.046875 -6.5625 8.859375 -6.5625q5.640625 0 8.796875 6.5625q1.0625 2.609375 1.53125 5.96875q0.484375 3.359375 0.484375 6.078125zm19.320267 17.656246q0 0.734375 -0.75 0.734375l-2.1875 0q-0.75 0 -0.75 -0.734375l0 -31.468746q-1.65625 1.390625 -3.09375 2.625q-1.4375 1.21875 -3.03125 2.59375q-0.59375 0.484375 -1.078125 -0.09375l-1.0625 -1.28125q-0.15625 -0.265625 -0.15625 -0.5625q0 -0.296875 0.265625 -0.515625l8.265625 -6.921875q0.203125 -0.21875 0.640625 -0.21875l1.4375 0q1.125 0 1.3125 0.1875q0.1875 0.1875 0.1875 1.3125l0 34.343746zm24.367142 -12.109371l-2.453125 0q-0.640625 0 -0.640625 -0.75l0 -8.53125q0 -0.75 0.640625 -0.75l2.453125 0q0.640625 0 0.640625 0.75l0 8.53125q0 0.75 -0.640625 0.75zm6.015625 -5.546875q0.109375 -15.203125 -7.25 -15.203125q-7.359375 0 -7.25 15.203125q-0.109375 15.25 7.25 15.25q7.359375 0 7.25 -15.25zm3.625 0q0 18.609371 -10.8125 18.609371q-10.9375 0 -10.9375 -18.609371q0 -6.828125 2.078125 -12.046875q3.046875 -6.5625 8.859375 -6.5625q5.640625 0 8.796875 6.5625q1.0625 2.609375 1.53125 5.96875q0.484375 3.359375 0.484375 6.078125z" fill-rule="nonzero"/><path fill="#8db971" d="m23.465387 180.79326l-2.453125 0q-0.640625 0 -0.640625 -0.75l0 -8.53125q0 -0.75 0.640625 -0.75l2.453125 0q0.640625 0 0.640625 0.75l0 8.53125q0 0.75 -0.640625 0.75zm6.015625 -5.546875q0.109375 -15.203125 -7.25 -15.203125q-7.359375 0 -7.25 15.203125q-0.109375 15.25 7.25 15.25q7.359375 0 7.25 -15.25zm3.624998 0q0 18.609375 -10.812498 18.609375q-10.9375 0 -10.9375 -18.609375q0 -6.828125 2.078125 -12.046875q3.046875 -6.5625 8.859375 -6.5625q5.640625 0 8.796875 6.5625q1.0624981 2.609375 1.5312481 5.96875q0.484375 3.359375 0.484375 6.078125zm19.320267 17.65625q0 0.734375 -0.75 0.734375l-2.1875 0q-0.75 0 -0.75 -0.734375l0 -31.46875q-1.65625 1.390625 -3.09375 2.625q-1.4375 1.21875 -3.03125 2.59375q-0.59375 0.484375 -1.078125 -0.09375l-1.0625 -1.28125q-0.15625 -0.265625 -0.15625 -0.5625q0 -0.296875 0.265625 -0.515625l8.265625 -6.921875q0.203125 -0.21875 0.640625 -0.21875l1.4375 0q1.125 0 1.3125 0.1875q0.1875 0.1875 0.1875 1.3125l0 34.34375zm24.367142 -12.109375l-2.453125 0q-0.640625 0 -0.640625 -0.75l0 -8.53125q0 -0.75 0.640625 -0.75l2.453125 0q0.640625 0 0.640625 0.75l0 8.53125q0 0.75 -0.640625 0.75zm6.015625 -5.546875q0.109375 -15.203125 -7.25 -15.203125q-7.359375 0 -7.25 15.203125q-0.109375 15.25 7.25 15.25q7.359375 0 7.25 -15.25zm3.625 0q0 18.609375 -10.8125 18.609375q-10.9375 0 -10.9375 -18.609375q0 -6.828125 2.078125 -12.046875q3.046875 -6.5625 8.859375 -6.5625q5.640625 0 8.796875 6.5625q1.0625 2.609375 1.53125 5.96875q0.484375 3.359375 0.484375 6.078125zm17.023392 5.546875l-2.453125 0q-0.640625 0 -0.640625 -0.75l0 -8.53125q0 -0.75 0.640625 -0.75l2.453125 0q0.640625 0 0.640625 0.75l0 8.53125q0 0.75 -0.640625 0.75zm6.015625 -5.546875q0.109375 -15.203125 -7.25 -15.203125q-7.359375 0 -7.25 15.203125q-0.109375 15.25 7.25 15.25q7.359375 0 7.25 -15.25zm3.625 0q0 18.609375 -10.8125 18.609375q-10.9375 0 -10.9375 -18.609375q0 -6.828125 2.078125 -12.046875q3.046875 -6.5625 8.859375 -6.5625q5.640625 0 8.796875 6.5625q1.0625 2.609375 1.53125 5.96875q0.484375 3.359375 0.484375 6.078125zm19.320274 17.65625q0 0.734375 -0.75 0.734375l-2.1875 0q-0.75 0 -0.75 -0.734375l0 -31.46875q-1.6562576 1.390625 -3.0937576 2.625q-1.4375 1.21875 -3.03125 2.59375q-0.59375 0.484375 -1.078125 -0.09375l-1.0625 -1.28125q-0.15625 -0.265625 -0.15625 -0.5625q0 -0.296875 0.265625 -0.515625l8.265633 -6.921875q0.203125 -0.21875 0.640625 -0.21875l1.4375 0q1.125 0 1.3125 0.1875q0.1875 0.1875 0.1875 1.3125l0 34.34375zm24.367142 -12.109375l-2.453125 0q-0.640625 0 -0.640625 -0.75l0 -8.53125q0 -0.75 0.640625 -0.75l2.453125 0q0.640625 0 0.640625 0.75l0 8.53125q0 0.75 -0.640625 0.75zm6.015625 -5.546875q0.109375 -15.203125 -7.25 -15.203125q-7.359375 0 -7.25 15.203125q-0.109375 15.25 7.25 15.25q7.359375 0 7.25 -15.25zm3.625 0q0 18.609375 -10.8125 18.609375q-10.9375 0 -10.9375 -18.609375q0 -6.828125 2.078125 -12.046875q3.046875 -6.5625 8.859375 -6.5625q5.640625 0 8.796875 6.5625q1.0625 2.609375 1.53125 5.96875q0.484375 3.359375 0.484375 6.078125zm17.023392 5.546875l-2.453125 0q-0.640625 0 -0.640625 -0.75l0 -8.53125q0 -0.75 0.640625 -0.75l2.453125 0q0.640625 0 0.640625 0.75l0 8.53125q0 0.75 -0.640625 0.75zm6.015625 -5.546875q0.109375 -15.203125 -7.25 -15.203125q-7.359375 0 -7.25 15.203125q-0.109375 15.25 7.25 15.25q7.359375 0 7.25 -15.25zm3.625 0q0 18.609375 -10.8125 18.609375q-10.9375 0 -10.9375 -18.609375q0 -6.828125 2.078125 -12.046875q3.046875 -6.5625 8.859375 -6.5625q5.640625 0 8.796875 6.5625q1.0625 2.609375 1.53125 5.96875q0.484375 3.359375 0.484375 6.078125zm19.320267 17.65625q0 0.734375 -0.75 0.734375l-2.1875 0q-0.75 0 -0.75 -0.734375l0 -31.46875q-1.65625 1.390625 -3.09375 2.625q-1.4375 1.21875 -3.03125 2.59375q-0.59375 0.484375 -1.078125 -0.09375l-1.0625 -1.28125q-0.15625 -0.265625 -0.15625 -0.5625q0 -0.296875 0.265625 -0.515625l8.265625 -6.921875q0.203125 -0.21875 0.640625 -0.21875l1.4375 0q1.125 0 1.3125 0.1875q0.1875 0.1875 0.1875 1.3125l0 34.34375zm477.6552 -12.109375l-2.453125 0q-0.640625 0 -0.640625 -0.75l0 -8.53125q0 -0.75 0.640625 -0.75l2.453125 0q0.640625 0 0.640625 0.75l0 8.53125q0 0.75 -0.640625 0.75zm6.015625 -5.546875q0.109375 -15.203125 -7.25 -15.203125q-7.359375 0 -7.25 15.203125q-0.109375 15.25 7.25 15.25q7.359375 0 7.25 -15.25zm3.625 0q0 18.609375 -10.8125 18.609375q-10.9375 0 -10.9375 -18.609375q0 -6.828125 2.078125 -12.046875q3.046875 -6.5625 8.859375 -6.5625q5.640625 0 8.796875 6.5625q1.0625 2.609375 1.53125 5.96875q0.484375 3.359375 0.484375 6.078125zm19.320251 17.65625q0 0.734375 -0.75 0.734375l-2.1875 0q-0.75 0 -0.75 -0.734375l0 -31.46875q-1.65625 1.390625 -3.09375 2.625q-1.4375 1.21875 -3.03125 2.59375q-0.59375 0.484375 -1.078125 -0.09375l-1.0625 -1.28125q-0.15625 -0.265625 -0.15625 -0.5625q0 -0.296875 0.265625 -0.515625l8.265625 -6.921875q0.203125 -0.21875 0.640625 -0.21875l1.4375 0q1.125 0 1.3125 0.1875q0.1875 0.1875 0.1875 1.3125l0 34.34375zm24.367126 -12.109375l-2.453125 0q-0.640625 0 -0.640625 -0.75l0 -8.53125q0 -0.75 0.640625 -0.75l2.453125 0q0.640625 0 0.640625 0.75l0 8.53125q0 0.75 -0.640625 0.75zm6.015625 -5.546875q0.109375 -15.203125 -7.25 -15.203125q-7.359375 0 -7.25 15.203125q-0.109375 15.25 7.25 15.25q7.359375 0 7.25 -15.25zm3.625 0q0 18.609375 -10.8125 18.609375q-10.9375 0 -10.9375 -18.609375q0 -6.828125 2.078125 -12.046875q3.046875 -6.5625 8.859375 -6.5625q5.640625 0 8.796875 6.5625q1.0625 2.609375 1.53125 5.96875q0.484375 3.359375 0.484375 6.078125zm19.320251 17.65625q0 0.734375 -0.75 0.734375l-2.1875 0q-0.75 0 -0.75 -0.734375l0 -31.46875q-1.65625 1.390625 -3.09375 2.625q-1.4375 1.21875 -3.03125 2.59375q-0.59375 0.484375 -1.078125 -0.09375l-1.0625 -1.28125q-0.15625 -0.265625 -0.15625 -0.5625q0 -0.296875 0.265625 -0.515625l8.265625 -6.921875q0.203125 -0.21875 0.640625 -0.21875l1.4375 0q1.125 0 1.3125 0.1875q0.1875 0.1875 0.1875 1.3125l0 34.34375zm24.367126 -12.109375l-2.453125 0q-0.640625 0 -0.640625 -0.75l0 -8.53125q0 -0.75 0.640625 -0.75l2.453125 0q0.640625 0 0.640625 0.75l0 8.53125q0 0.75 -0.640625 0.75zm6.015625 -5.546875q0.109375 -15.203125 -7.25 -15.203125q-7.359375 0 -7.25 15.203125q-0.109375 15.25 7.25 15.25q7.359375 0 7.25 -15.25zm3.625 0q0 18.609375 -10.8125 18.609375q-10.9375 0 -10.9375 -18.609375q0 -6.828125 2.078125 -12.046875q3.046875 -6.5625 8.859375 -6.5625q5.640625 0 8.796875 6.5625q1.0625 2.609375 1.53125 5.96875q0.484375 3.359375 0.484375 6.078125zm19.320251 17.65625q0 0.734375 -0.75 0.734375l-2.1875 0q-0.75 0 -0.75 -0.734375l0 -31.46875q-1.65625 1.390625 -3.09375 2.625q-1.4375 1.21875 -3.03125 2.59375q-0.59375 0.484375 -1.078125 -0.09375l-1.0625 -1.28125q-0.15625 -0.265625 -0.15625 -0.5625q0 -0.296875 0.265625 -0.515625l8.265625 -6.921875q0.203125 -0.21875 0.640625 -0.21875l1.4375 0q1.125 0 1.3125 0.1875q0.1875 0.1875 0.1875 1.3125l0 34.34375zm24.367126 -12.109375l-2.453125 0q-0.640625 0 -0.640625 -0.75l0 -8.53125q0 -0.75 0.640625 -0.75l2.453125 0q0.640625 0 0.640625 0.75l0 8.53125q0 0.75 -0.640625 0.75zm6.015625 -5.546875q0.109375 -15.203125 -7.25 -15.203125q-7.359375 0 -7.25 15.203125q-0.109375 15.25 7.25 15.25q7.359375 0 7.25 -15.25zm3.625 0q0 18.609375 -10.8125 18.609375q-10.9375 0 -10.9375 -18.609375q0 -6.828125 2.078125 -12.046875q3.046875 -6.5625 8.859375 -6.5625q5.640625 0 8.796875 6.5625q1.0625 2.609375 1.53125 5.96875q0.484375 3.359375 0.484375 6.078125zm17.023376 5.546875l-2.453125 0q-0.640625 0 -0.640625 -0.75l0 -8.53125q0 -0.75 0.640625 -0.75l2.453125 0q0.640625 0 0.640625 0.75l0 8.53125q0 0.75 -0.640625 0.75zm6.015625 -5.546875q0.109375 -15.203125 -7.25 -15.203125q-7.359375 0 -7.25 15.203125q-0.109375 15.25 7.25 15.25q7.359375 0 7.25 -15.25zm3.625 0q0 18.609375 -10.8125 18.609375q-10.9375 0 -10.9375 -18.609375q0 -6.828125 2.078125 -12.046875q3.046875 -6.5625 8.859375 -6.5625q5.640625 0 8.796875 6.5625q1.0625 2.609375 1.53125 5.96875q0.484375 3.359375 0.484375 6.078125z" fill-rule="nonzero"/><path fill="#8db971" d="m23.465387 308.79327l-2.453125 0q-0.640625 0 -0.640625 -0.75l0 -8.53125q0 -0.75 0.640625 -0.75l2.453125 0q0.640625 0 0.640625 0.75l0 8.53125q0 0.75 -0.640625 0.75zm6.015625 -5.546875q0.109375 -15.203125 -7.25 -15.203125q-7.359375 0 -7.25 15.203125q-0.109375 15.25 7.25 15.25q7.359375 0 7.25 -15.25zm3.624998 0q0 18.609375 -10.812498 18.609375q-10.9375 0 -10.9375 -18.609375q0 -6.828125 2.078125 -12.046875q3.046875 -6.5625 8.859375 -6.5625q5.640625 0 8.796875 6.5625q1.0624981 2.609375 1.5312481 5.96875q0.484375 3.359375 0.484375 6.078125zm17.023392 5.546875l-2.453125 0q-0.640625 0 -0.640625 -0.75l0 -8.53125q0 -0.75 0.640625 -0.75l2.453125 0q0.640625 0 0.640625 0.75l0 8.53125q0 0.75 -0.640625 0.75zm6.015625 -5.546875q0.109375 -15.203125 -7.25 -15.203125q-7.359375 0 -7.25 15.203125q-0.109375 15.25 7.25 15.25q7.359375 0 7.25 -15.25zm3.625 0q0 18.609375 -10.8125 18.609375q-10.9375 0 -10.9375 -18.609375q0 -6.828125 2.078125 -12.046875q3.046875 -6.5625 8.859375 -6.5625q5.640625 0 8.796875 6.5625q1.0625 2.609375 1.53125 5.96875q0.484375 3.359375 0.484375 6.078125zm19.320267 17.65625q0 0.734375 -0.75 0.734375l-2.1875 0q-0.75 0 -0.75 -0.734375l0 -31.46875q-1.65625 1.390625 -3.09375 2.625q-1.4375 1.21875 -3.03125 2.59375q-0.59375 0.484375 -1.078125 -0.09375l-1.0625 -1.28125q-0.15625 -0.265625 -0.15625 -0.5625q0 -0.296875 0.265625 -0.515625l8.265625 -6.921875q0.203125 -0.21875 0.640625 -0.21875l1.4375 0q1.125 0 1.3125 0.1875q0.1875 0.1875 0.1875 1.3125l0 34.34375zm24.367142 -12.109375l-2.453125 0q-0.640625 0 -0.640625 -0.75l0 -8.53125q0 -0.75 0.640625 -0.75l2.453125 0q0.640625 0 0.640625 0.75l0 8.53125q0 0.75 -0.640625 0.75zm6.015625 -5.546875q0.109375 -15.203125 -7.25 -15.203125q-7.359375 0 -7.25 15.203125q-0.109375 15.25 7.25 15.25q7.359375 0 7.25 -15.25zm3.625 0q0 18.609375 -10.8125 18.609375q-10.9375 0 -10.9375 -18.609375q0 -6.828125 2.078125 -12.046875q3.046875 -6.5625 8.859375 -6.5625q5.640625 0 8.796875 6.5625q1.0625 2.609375 1.53125 5.96875q0.484375 3.359375 0.484375 6.078125zm17.0234 5.546875l-2.4531326 0q-0.640625 0 -0.640625 -0.75l0 -8.53125q0 -0.75 0.640625 -0.75l2.4531326 0q0.640625 0 0.640625 0.75l0 8.53125q0 0.75 -0.640625 0.75zm6.015625 -5.546875q0.109375 -15.203125 -7.25 -15.203125q-7.3593826 0 -7.2500076 15.203125q-0.109375 15.25 7.2500076 15.25q7.359375 0 7.25 -15.25zm3.625 0q0 18.609375 -10.8125 18.609375q-10.937508 0 -10.937508 -18.609375q0 -6.828125 2.078125 -12.046875q3.046875 -6.5625 8.859383 -6.5625q5.640625 0 8.796875 6.5625q1.0625 2.609375 1.53125 5.96875q0.484375 3.359375 0.484375 6.078125zm17.023392 5.546875l-2.453125 0q-0.640625 0 -0.640625 -0.75l0 -8.53125q0 -0.75 0.640625 -0.75l2.453125 0q0.640625 0 0.640625 0.75l0 8.53125q0 0.75 -0.640625 0.75zm6.015625 -5.546875q0.109375 -15.203125 -7.25 -15.203125q-7.359375 0 -7.25 15.203125q-0.109375 15.25 7.25 15.25q7.359375 0 7.25 -15.25zm3.625 0q0 18.609375 -10.8125 18.609375q-10.9375 0 -10.9375 -18.609375q0 -6.828125 2.078125 -12.046875q3.046875 -6.5625 8.859375 -6.5625q5.640625 0 8.796875 6.5625q1.0625 2.609375 1.53125 5.96875q0.484375 3.359375 0.484375 6.078125zm203.6715 5.546875l-2.453125 0q-0.640625 0 -0.640625 -0.75l0 -8.53125q0 -0.75 0.640625 -0.75l2.453125 0q0.640625 0 0.640625 0.75l0 8.53125q0 0.75 -0.640625 0.75zm6.015625 -5.546875q0.109375 -15.203125 -7.25 -15.203125q-7.359375 0 -7.25 15.203125q-0.109375 15.25 7.25 15.25q7.359375 0 7.25 -15.25zm3.625 0q0 18.609375 -10.8125 18.609375q-10.9375 0 -10.9375 -18.609375q0 -6.828125 2.078125 -12.046875q3.046875 -6.5625 8.859375 -6.5625q5.640625 0 8.796875 6.5625q1.0625 2.609375 1.53125 5.96875q0.484375 3.359375 0.484375 6.078125zm17.023376 5.546875l-2.453125 0q-0.640625 0 -0.640625 -0.75l0 -8.53125q0 -0.75 0.640625 -0.75l2.453125 0q0.640625 0 0.640625 0.75l0 8.53125q0 0.75 -0.640625 0.75zm6.015625 -5.546875q0.109375 -15.203125 -7.25 -15.203125q-7.359375 0 -7.25 15.203125q-0.109375 15.25 7.25 15.25q7.359375 0 7.25 -15.25zm3.625 0q0 18.609375 -10.8125 18.609375q-10.9375 0 -10.9375 -18.609375q0 -6.828125 2.078125 -12.046875q3.046875 -6.5625 8.859375 -6.5625q5.640625 0 8.796875 6.5625q1.0625 2.609375 1.53125 5.96875q0.484375 3.359375 0.484375 6.078125z" fill-rule="nonzero"/><path fill="#8db971" d="m23.465387 372.79327l-2.453125 0q-0.640625 0 -0.640625 -0.75l0 -8.53125q0 -0.75 0.640625 -0.75l2.453125 0q0.640625 0 0.640625 0.75l0 8.53125q0 0.75 -0.640625 0.75zm6.015625 -5.546875q0.109375 -15.203125 -7.25 -15.203125q-7.359375 0 -7.25 15.203125q-0.109375 15.25 7.25 15.25q7.359375 0 7.25 -15.25zm3.624998 0q0 18.609375 -10.812498 18.609375q-10.9375 0 -10.9375 -18.609375q0 -6.828125 2.078125 -12.046875q3.046875 -6.5625 8.859375 -6.5625q5.640625 0 8.796875 6.5625q1.0624981 2.609375 1.5312481 5.96875q0.484375 3.359375 0.484375 6.078125zm17.023392 5.546875l-2.453125 0q-0.640625 0 -0.640625 -0.75l0 -8.53125q0 -0.75 0.640625 -0.75l2.453125 0q0.640625 0 0.640625 0.75l0 8.53125q0 0.75 -0.640625 0.75zm6.015625 -5.546875q0.109375 -15.203125 -7.25 -15.203125q-7.359375 0 -7.25 15.203125q-0.109375 15.25 7.25 15.25q7.359375 0 7.25 -15.25zm3.625 0q0 18.609375 -10.8125 18.609375q-10.9375 0 -10.9375 -18.609375q0 -6.828125 2.078125 -12.046875q3.046875 -6.5625 8.859375 -6.5625q5.640625 0 8.796875 6.5625q1.0625 2.609375 1.53125 5.96875q0.484375 3.359375 0.484375 6.078125zm19.320267 17.65625q0 0.734375 -0.75 0.734375l-2.1875 0q-0.75 0 -0.75 -0.734375l0 -31.46875q-1.65625 1.390625 -3.09375 2.625q-1.4375 1.21875 -3.03125 2.59375q-0.59375 0.484375 -1.078125 -0.09375l-1.0625 -1.28125q-0.15625 -0.265625 -0.15625 -0.5625q0 -0.296875 0.265625 -0.515625l8.265625 -6.921875q0.203125 -0.21875 0.640625 -0.21875l1.4375 0q1.125 0 1.3125 0.1875q0.1875 0.1875 0.1875 1.3125l0 34.34375zm26.664017 0q0 0.734375 -0.75 0.734375l-2.1875 0q-0.75 0 -0.75 -0.734375l0 -31.46875q-1.65625 1.390625 -3.09375 2.625q-1.4375 1.21875 -3.03125 2.59375q-0.59375 0.484375 -1.078125 -0.09375l-1.0625 -1.28125q-0.15625 -0.265625 -0.15625 -0.5625q0 -0.296875 0.265625 -0.515625l8.265625 -6.921875q0.203125 -0.21875 0.640625 -0.21875l1.4375 0q1.125 0 1.3125 0.1875q0.1875 0.1875 0.1875 1.3125l0 34.34375zm24.36715 -12.109375l-2.4531326 0q-0.640625 0 -0.640625 -0.75l0 -8.53125q0 -0.75 0.640625 -0.75l2.4531326 0q0.640625 0 0.640625 0.75l0 8.53125q0 0.75 -0.640625 0.75zm6.015625 -5.546875q0.109375 -15.203125 -7.25 -15.203125q-7.3593826 0 -7.2500076 15.203125q-0.109375 15.25 7.2500076 15.25q7.359375 0 7.25 -15.25zm3.625 0q0 18.609375 -10.8125 18.609375q-10.937508 0 -10.937508 -18.609375q0 -6.828125 2.078125 -12.046875q3.046875 -6.5625 8.859383 -6.5625q5.640625 0 8.796875 6.5625q1.0625 2.609375 1.53125 5.96875q0.484375 3.359375 0.484375 6.078125zm736.95154 5.546875l-2.453125 0q-0.640625 0 -0.640625 -0.75l0 -8.53125q0 -0.75 0.640625 -0.75l2.453125 0q0.640625 0 0.640625 0.75l0 8.53125q0 0.75 -0.640625 0.75zm6.015625 -5.546875q0.109375 -15.203125 -7.25 -15.203125q-7.359375 0 -7.25 15.203125q-0.109375 15.25 7.25 15.25q7.359375 0 7.25 -15.25zm3.625 0q0 18.609375 -10.8125 18.609375q-10.9375 0 -10.9375 -18.609375q0 -6.828125 2.078125 -12.046875q3.046875 -6.5625 8.859375 -6.5625q5.640625 0 8.796875 6.5625q1.0625 2.609375 1.53125 5.96875q0.484375 3.359375 0.484375 6.078125zm19.320251 17.65625q0 0.734375 -0.75 0.734375l-2.1875 0q-0.75 0 -0.75 -0.734375l0 -31.46875q-1.65625 1.390625 -3.09375 2.625q-1.4375 1.21875 -3.03125 2.59375q-0.59375 0.484375 -1.078125 -0.09375l-1.0625 -1.28125q-0.15625 -0.265625 -0.15625 -0.5625q0 -0.296875 0.265625 -0.515625l8.265625 -6.921875q0.203125 -0.21875 0.640625 -0.21875l1.4375 0q1.125 0 1.3125 0.1875q0.1875 0.1875 0.1875 1.3125l0 34.34375zm24.367126 -12.109375l-2.453125 0q-0.640625 0 -0.640625 -0.75l0 -8.53125q0 -0.75 0.640625 -0.75l2.453125 0q0.640625 0 0.640625 0.75l0 8.53125q0 0.75 -0.640625 0.75zm6.015625 -5.546875q0.109375 -15.203125 -7.25 -15.203125q-7.359375 0 -7.25 15.203125q-0.109375 15.25 7.25 15.25q7.359375 0 7.25 -15.25zm3.625 0q0 18.609375 -10.8125 18.609375q-10.9375 0 -10.9375 -18.609375q0 -6.828125 2.078125 -12.046875q3.046875 -6.5625 8.859375 -6.5625q5.640625 0 8.796875 6.5625q1.0625 2.609375 1.53125 5.96875q0.484375 3.359375 0.484375 6.078125z" fill-rule="nonzero"/><path fill="#8db971" d="m23.465387 436.79327l-2.453125 0q-0.640625 0 -0.640625 -0.75l0 -8.53125q0 -0.75 0.640625 -0.75l2.453125 0q0.640625 0 0.640625 0.75l0 8.53125q0 0.75 -0.640625 0.75zm6.015625 -5.546875q0.109375 -15.203125 -7.25 -15.203125q-7.359375 0 -7.25 15.203125q-0.109375 15.25 7.25 15.25q7.359375 0 7.25 -15.25zm3.624998 0q0 18.609375 -10.812498 18.609375q-10.9375 0 -10.9375 -18.609375q0 -6.828125 2.078125 -12.046875q3.046875 -6.5625 8.859375 -6.5625q5.640625 0 8.796875 6.5625q1.0624981 2.609375 1.5312481 5.96875q0.484375 3.359375 0.484375 6.078125zm576.9676 5.546875l-2.453125 0q-0.640625 0 -0.640625 -0.75l0 -8.53125q0 -0.75 0.640625 -0.75l2.453125 0q0.640625 0 0.640625 0.75l0 8.53125q0 0.75 -0.640625 0.75zm6.015625 -5.546875q0.109375 -15.203125 -7.25 -15.203125q-7.359375 0 -7.25 15.203125q-0.109375 15.25 7.25 15.25q7.359375 0 7.25 -15.25zm3.625 0q0 18.609375 -10.8125 18.609375q-10.9375 0 -10.9375 -18.609375q0 -6.828125 2.078125 -12.046875q3.046875 -6.5625 8.859375 -6.5625q5.640625 0 8.796875 6.5625q1.0625 2.609375 1.53125 5.96875q0.484375 3.359375 0.484375 6.078125zm19.320251 17.65625q0 0.734375 -0.75 0.734375l-2.1875 0q-0.75 0 -0.75 -0.734375l0 -31.46875q-1.65625 1.390625 -3.09375 2.625q-1.4375 1.21875 -3.03125 2.59375q-0.59375 0.484375 -1.078125 -0.09375l-1.0625 -1.28125q-0.15625 -0.265625 -0.15625 -0.5625q0 -0.296875 0.265625 -0.515625l8.265625 -6.921875q0.203125 -0.21875 0.640625 -0.21875l1.4375 0q1.125 0 1.3125 0.1875q0.1875 0.1875 0.1875 1.3125l0 34.34375zm26.664001 0q0 0.734375 -0.75 0.734375l-2.1875 0q-0.75 0 -0.75 -0.734375l0 -31.46875q-1.65625 1.390625 -3.09375 2.625q-1.4375 1.21875 -3.03125 2.59375q-0.59375 0.484375 -1.078125 -0.09375l-1.0625 -1.28125q-0.15625 -0.265625 -0.15625 -0.5625q0 -0.296875 0.265625 -0.515625l8.265625 -6.921875q0.203125 -0.21875 0.640625 -0.21875l1.4375 0q1.125 0 1.3125 0.1875q0.1875 0.1875 0.1875 1.3125l0 34.34375zm24.367126 -12.109375l-2.453125 0q-0.640625 0 -0.640625 -0.75l0 -8.53125q0 -0.75 0.640625 -0.75l2.453125 0q0.640625 0 0.640625 0.75l0 8.53125q0 0.75 -0.640625 0.75zm6.015625 -5.546875q0.109375 -15.203125 -7.25 -15.203125q-7.359375 0 -7.25 15.203125q-0.109375 15.25 7.25 15.25q7.359375 0 7.25 -15.25zm3.625 0q0 18.609375 -10.8125 18.609375q-10.9375 0 -10.9375 -18.609375q0 -6.828125 2.078125 -12.046875q3.046875 -6.5625 8.859375 -6.5625q5.640625 0 8.796875 6.5625q1.0625 2.609375 1.53125 5.96875q0.484375 3.359375 0.484375 6.078125zm17.023376 5.546875l-2.453125 0q-0.640625 0 -0.640625 -0.75l0 -8.53125q0 -0.75 0.640625 -0.75l2.453125 0q0.640625 0 0.640625 0.75l0 8.53125q0 0.75 -0.640625 0.75zm6.015625 -5.546875q0.109375 -15.203125 -7.25 -15.203125q-7.359375 0 -7.25 15.203125q-0.109375 15.25 7.25 15.25q7.359375 0 7.25 -15.25zm3.625 0q0 18.609375 -10.8125 18.609375q-10.9375 0 -10.9375 -18.609375q0 -6.828125 2.078125 -12.046875q3.046875 -6.5625 8.859375 -6.5625q5.640625 0 8.796875 6.5625q1.0625 2.609375 1.53125 5.96875q0.484375 3.359375 0.484375 6.078125zm17.023376 5.546875l-2.453125 0q-0.640625 0 -0.640625 -0.75l0 -8.53125q0 -0.75 0.640625 -0.75l2.453125 0q0.640625 0 0.640625 0.75l0 8.53125q0 0.75 -0.640625 0.75zm6.015625 -5.546875q0.109375 -15.203125 -7.25 -15.203125q-7.359375 0 -7.25 15.203125q-0.109375 15.25 7.25 15.25q7.359375 0 7.25 -15.25zm3.625 0q0 18.609375 -10.8125 18.609375q-10.9375 0 -10.9375 -18.609375q0 -6.828125 2.078125 -12.046875q3.046875 -6.5625 8.859375 -6.5625q5.640625 0 8.796875 6.5625q1.0625 2.609375 1.53125 5.96875q0.484375 3.359375 0.484375 6.078125zm17.023376 5.546875l-2.453125 0q-0.640625 0 -0.640625 -0.75l0 -8.53125q0 -0.75 0.640625 -0.75l2.453125 0q0.640625 0 0.640625 0.75l0 8.53125q0 0.75 -0.640625 0.75zm6.015625 -5.546875q0.109375 -15.203125 -7.25 -15.203125q-7.359375 0 -7.25 15.203125q-0.109375 15.25 7.25 15.25q7.359375 0 7.25 -15.25zm3.625 0q0 18.609375 -10.8125 18.609375q-10.9375 0 -10.9375 -18.609375q0 -6.828125 2.078125 -12.046875q3.046875 -6.5625 8.859375 -6.5625q5.640625 0 8.796875 6.5625q1.0625 2.609375 1.53125 5.96875q0.484375 3.359375 0.484375 6.078125z" fill-rule="nonzero"/><path fill="#8db971" d="m23.465387 564.7933l-2.453125 0q-0.640625 0 -0.640625 -0.75l0 -8.53125q0 -0.75 0.640625 -0.75l2.453125 0q0.640625 0 0.640625 0.75l0 8.53125q0 0.75 -0.640625 0.75zm6.015625 -5.546875q0.109375 -15.203125 -7.25 -15.203125q-7.359375 0 -7.25 15.203125q-0.109375 15.25 7.25 15.25q7.359375 0 7.25 -15.25zm3.624998 0q0 18.609375 -10.812498 18.609375q-10.9375 0 -10.9375 -18.609375q0 -6.828125 2.078125 -12.046875q3.046875 -6.5625 8.859375 -6.5625q5.640625 0 8.796875 6.5625q1.0624981 2.609375 1.5312481 5.96875q0.484375 3.359375 0.484375 6.078125z" fill-rule="nonzero"/><path fill="#8db971" d="m23.465387 628.7933l-2.453125 0q-0.640625 0 -0.640625 -0.75l0 -8.53125q0 -0.75 0.640625 -0.75l2.453125 0q0.640625 0 0.640625 0.75l0 8.53125q0 0.75 -0.640625 0.75zm6.015625 -5.546875q0.109375 -15.203125 -7.25 -15.203125q-7.359375 0 -7.25 15.203125q-0.109375 15.25 7.25 15.25q7.359375 0 7.25 -15.25zm3.624998 0q0 18.609375 -10.812498 18.609375q-10.9375 0 -10.9375 -18.609375q0 -6.828125 2.078125 -12.046875q3.046875 -6.5625 8.859375 -6.5625q5.640625 0 8.796875 6.5625q1.0624981 2.609375 1.5312481 5.96875q0.484375 3.359375 0.484375 6.078125zm19.320267 17.65625q0 0.734375 -0.75 0.734375l-2.1875 0q-0.75 0 -0.75 -0.734375l0 -31.46875q-1.65625 1.390625 -3.09375 2.625q-1.4375 1.21875 -3.03125 2.59375q-0.59375 0.484375 -1.078125 -0.09375l-1.0625 -1.28125q-0.15625 -0.265625 -0.15625 -0.5625q0 -0.296875 0.265625 -0.515625l8.265625 -6.921875q0.203125 -0.21875 0.640625 -0.21875l1.4375 0q1.125 0 1.3125 0.1875q0.1875 0.1875 0.1875 1.3125l0 34.34375zm26.664017 0q0 0.734375 -0.75 0.734375l-2.1875 0q-0.75 0 -0.75 -0.734375l0 -31.46875q-1.65625 1.390625 -3.09375 2.625q-1.4375 1.21875 -3.03125 2.59375q-0.59375 0.484375 -1.078125 -0.09375l-1.0625 -1.28125q-0.15625 -0.265625 -0.15625 -0.5625q0 -0.296875 0.265625 -0.515625l8.265625 -6.921875q0.203125 -0.21875 0.640625 -0.21875l1.4375 0q1.125 0 1.3125 0.1875q0.1875 0.1875 0.1875 1.3125l0 34.34375zm24.367142 -12.109375l-2.453125 0q-0.640625 0 -0.640625 -0.75l0 -8.53125q0 -0.75 0.640625 -0.75l2.453125 0q0.640625 0 0.640625 0.75l0 8.53125q0 0.75 -0.640625 0.75zm6.015625 -5.546875q0.109375 -15.203125 -7.25 -15.203125q-7.359375 0 -7.25 15.203125q-0.109375 15.25 7.25 15.25q7.359375 0 7.25 -15.25zm3.625 0q0 18.609375 -10.8125 18.609375q-10.9375 0 -10.9375 -18.609375q0 -6.828125 2.078125 -12.046875q3.046875 -6.5625 8.859375 -6.5625q5.640625 0 8.796875 6.5625q1.0625 2.609375 1.53125 5.96875q0.484375 3.359375 0.484375 6.078125zm17.0234 5.546875l-2.4531326 0q-0.640625 0 -0.640625 -0.75l0 -8.53125q0 -0.75 0.640625 -0.75l2.4531326 0q0.640625 0 0.640625 0.75l0 8.53125q0 0.75 -0.640625 0.75zm6.015625 -5.546875q0.109375 -15.203125 -7.25 -15.203125q-7.3593826 0 -7.2500076 15.203125q-0.109375 15.25 7.2500076 15.25q7.359375 0 7.25 -15.25zm3.625 0q0 18.609375 -10.8125 18.609375q-10.937508 0 -10.937508 -18.609375q0 -6.828125 2.078125 -12.046875q3.046875 -6.5625 8.859383 -6.5625q5.640625 0 8.796875 6.5625q1.0625 2.609375 1.53125 5.96875q0.484375 3.359375 0.484375 6.078125zm19.320267 17.65625q0 0.734375 -0.75 0.734375l-2.1875 0q-0.75 0 -0.75 -0.734375l0 -31.46875q-1.65625 1.390625 -3.09375 2.625q-1.4375 1.21875 -3.03125 2.59375q-0.59375 0.484375 -1.078125 -0.09375l-1.0625 -1.28125q-0.15625 -0.265625 -0.15625 -0.5625q0 -0.296875 0.265625 -0.515625l8.265625 -6.921875q0.203125 -0.21875 0.640625 -0.21875l1.4375 0q1.125 0 1.3125 0.1875q0.1875 0.1875 0.1875 1.3125l0 34.34375zm24.367142 -12.109375l-2.453125 0q-0.640625 0 -0.640625 -0.75l0 -8.53125q0 -0.75 0.640625 -0.75l2.453125 0q0.640625 0 0.640625 0.75l0 8.53125q0 0.75 -0.640625 0.75zm6.015625 -5.546875q0.109375 -15.203125 -7.25 -15.203125q-7.359375 0 -7.25 15.203125q-0.109375 15.25 7.25 15.25q7.359375 0 7.25 -15.25zm3.625 0q0 18.609375 -10.8125 18.609375q-10.9375 0 -10.9375 -18.609375q0 -6.828125 2.078125 -12.046875q3.046875 -6.5625 8.859375 -6.5625q5.640625 0 8.796875 6.5625q1.0625 2.609375 1.53125 5.96875q0.484375 3.359375 0.484375 6.078125z" fill-rule="nonzero"/><path fill="#8db971" d="m23.465387 692.7933l-2.453125 0q-0.640625 0 -0.640625 -0.75l0 -8.53125q0 -0.75 0.640625 -0.75l2.453125 0q0.640625 0 0.640625 0.75l0 8.53125q0 0.75 -0.640625 0.75zm6.015625 -5.546875q0.109375 -15.203125 -7.25 -15.203125q-7.359375 0 -7.25 15.203125q-0.109375 15.25 7.25 15.25q7.359375 0 7.25 -15.25zm3.624998 0q0 18.609375 -10.812498 18.609375q-10.9375 0 -10.9375 -18.609375q0 -6.828125 2.078125 -12.046875q3.046875 -6.5625 8.859375 -6.5625q5.640625 0 8.796875 6.5625q1.0624981 2.609375 1.5312481 5.96875q0.484375 3.359375 0.484375 6.078125zm17.023392 5.546875l-2.453125 0q-0.640625 0 -0.640625 -0.75l0 -8.53125q0 -0.75 0.640625 -0.75l2.453125 0q0.640625 0 0.640625 0.75l0 8.53125q0 0.75 -0.640625 0.75zm6.015625 -5.546875q0.109375 -15.203125 -7.25 -15.203125q-7.359375 0 -7.25 15.203125q-0.109375 15.25 7.25 15.25q7.359375 0 7.25 -15.25zm3.625 0q0 18.609375 -10.8125 18.609375q-10.9375 0 -10.9375 -18.609375q0 -6.828125 2.078125 -12.046875q3.046875 -6.5625 8.859375 -6.5625q5.640625 0 8.796875 6.5625q1.0625 2.609375 1.53125 5.96875q0.484375 3.359375 0.484375 6.078125zm19.320267 17.65625q0 0.734375 -0.75 0.734375l-2.1875 0q-0.75 0 -0.75 -0.734375l0 -31.46875q-1.65625 1.390625 -3.09375 2.625q-1.4375 1.21875 -3.03125 2.59375q-0.59375 0.484375 -1.078125 -0.09375l-1.0625 -1.28125q-0.15625 -0.265625 -0.15625 -0.5625q0 -0.296875 0.265625 -0.515625l8.265625 -6.921875q0.203125 -0.21875 0.640625 -0.21875l1.4375 0q1.125 0 1.3125 0.1875q0.1875 0.1875 0.1875 1.3125l0 34.34375zm26.664017 0q0 0.734375 -0.75 0.734375l-2.1875 0q-0.75 0 -0.75 -0.734375l0 -31.46875q-1.65625 1.390625 -3.09375 2.625q-1.4375 1.21875 -3.03125 2.59375q-0.59375 0.484375 -1.078125 -0.09375l-1.0625 -1.28125q-0.15625 -0.265625 -0.15625 -0.5625q0 -0.296875 0.265625 -0.515625l8.265625 -6.921875q0.203125 -0.21875 0.640625 -0.21875l1.4375 0q1.125 0 1.3125 0.1875q0.1875 0.1875 0.1875 1.3125l0 34.34375zm24.36715 -12.109375l-2.4531326 0q-0.640625 0 -0.640625 -0.75l0 -8.53125q0 -0.75 0.640625 -0.75l2.4531326 0q0.640625 0 0.640625 0.75l0 8.53125q0 0.75 -0.640625 0.75zm6.015625 -5.546875q0.109375 -15.203125 -7.25 -15.203125q-7.3593826 0 -7.2500076 15.203125q-0.109375 15.25 7.2500076 15.25q7.359375 0 7.25 -15.25zm3.625 0q0 18.609375 -10.8125 18.609375q-10.937508 0 -10.937508 -18.609375q0 -6.828125 2.078125 -12.046875q3.046875 -6.5625 8.859383 -6.5625q5.640625 0 8.796875 6.5625q1.0625 2.609375 1.53125 5.96875q0.484375 3.359375 0.484375 6.078125zm19.320267 17.65625q0 0.734375 -0.75 0.734375l-2.1875 0q-0.75 0 -0.75 -0.734375l0 -31.46875q-1.65625 1.390625 -3.09375 2.625q-1.4375 1.21875 -3.03125 2.59375q-0.59375 0.484375 -1.078125 -0.09375l-1.0625 -1.28125q-0.15625 -0.265625 -0.15625 -0.5625q0 -0.296875 0.265625 -0.515625l8.265625 -6.921875q0.203125 -0.21875 0.640625 -0.21875l1.4375 0q1.125 0 1.3125 0.1875q0.1875 0.1875 0.1875 1.3125l0 34.34375zm24.367142 -12.109375l-2.453125 0q-0.640625 0 -0.640625 -0.75l0 -8.53125q0 -0.75 0.640625 -0.75l2.453125 0q0.640625 0 0.640625 0.75l0 8.53125q0 0.75 -0.640625 0.75zm6.015625 -5.546875q0.109375 -15.203125 -7.25 -15.203125q-7.359375 0 -7.25 15.203125q-0.109375 15.25 7.25 15.25q7.359375 0 7.25 -15.25zm3.625 0q0 18.609375 -10.8125 18.609375q-10.9375 0 -10.9375 -18.609375q0 -6.828125 2.078125 -12.046875q3.046875 -6.5625 8.859375 -6.5625q5.640625 0 8.796875 6.5625q1.0625 2.609375 1.53125 5.96875q0.484375 3.359375 0.484375 6.078125zm310.32748 5.546875l-2.453125 0q-0.640625 0 -0.640625 -0.75l0 -8.53125q0 -0.75 0.640625 -0.75l2.453125 0q0.640625 0 0.640625 0.75l0 8.53125q0 0.75 -0.640625 0.75zm6.015625 -5.546875q0.109375 -15.203125 -7.25 -15.203125q-7.359375 0 -7.25 15.203125q-0.109375 15.25 7.25 15.25q7.359375 0 7.25 -15.25zm3.625 0q0 18.609375 -10.8125 18.609375q-10.9375 0 -10.9375 -18.609375q0 -6.828125 2.078125 -12.046875q3.046875 -6.5625 8.859375 -6.5625q5.640625 0 8.796875 6.5625q1.0625 2.609375 1.53125 5.96875q0.484375 3.359375 0.484375 6.078125z" fill-rule="nonzero"/></g></svg>