<svg version="1.1" viewBox="0.0 0.0 315.12335958005247 100.0" fill="none" stroke="none" stroke-linecap="square" stroke-miterlimit="10" xmlns:xlink="http://www.w3.org/1999/xlink" xmlns="http://www.w3.org/2000/svg"><clipPath id="p.0"><path d="m0 0l315.12335 0l0 100.0l-315.12335 0l0 -100.0z" clip-rule="nonzero"/></clipPath><g clip-path="url(#p.0)"><path fill="#000000" fill-opacity="0.0" d="m0 0l315.12335 0l0 100.0l-315.12335 0z" fill-rule="evenodd"/><path fill="#000000" fill-opacity="0.0" d="m0 0l314.96063 0l0 100.0l-314.96063 0z" fill-rule="evenodd"/><path fill="#0249bd" d="m81.256645 71.71375q-5.515625 0 -9.53125 -2.4375q-4.015625 -2.4375 -6.21875 -6.890625q-2.203125 -4.46875 -2.203125 -10.625q0 -6.15625 2.3125 -10.609375q2.328125 -4.46875 6.484375 -6.890625q4.171875 -2.4375 9.5625 -2.4375q5.75 0 9.359375 2.171875q3.609375 2.171875 5.84375 6.6875l-4.28125 2.34375q-1.296875 -3.34375 -4.09375 -5.078125q-2.78125 -1.734375 -6.828125 -1.734375q-3.921875 0 -6.953125 1.859375q-3.015625 1.84375 -4.75 5.34375q-1.71875 3.484375 -1.71875 8.34375q0 4.875 1.484375 8.359375q1.5 3.484375 4.453125 5.34375q2.96875 1.84375 7.25 1.84375q2.40625 0 4.484375 -0.609375q2.09375 -0.625 3.640625 -1.859375q1.5625 -1.234375 2.4375 -3.109375q0.875 -1.875 0.875 -4.390625l0 -1.359375l-12.3125 0l0 -4.390625l16.59375 0l0 19.53125l-3.6875 0l-0.234375 -7.21875l1.0 0.1875q-1.53125 3.625 -4.8125 5.625q-3.28125 2.0 -8.15625 2.0zm43.107727 -19.546875q0 -3.28125 -1.765625 -5.0625q-1.75 -1.796875 -4.96875 -1.796875q-3.0625 0 -5.171875 1.328125q-2.109375 1.3125 -3.109375 4.25l-3.8125 -2.34375q1.171875 -3.296875 4.34375 -5.3125q3.171875 -2.03125 7.859375 -2.03125q3.171875 0 5.75 1.09375q2.578125 1.078125 4.078125 3.28125q1.5000076 2.203125 1.5000076 5.65625l0 14.203125q0 2.109375 2.21875 2.109375q1.125 0 2.171875 -0.296875l-0.234375 3.703125q-1.171875 0.578125 -3.046875 0.578125q-1.703125 0 -3.0625076 -0.640625q-1.34375 -0.640625 -2.109375 -1.953125q-0.75 -1.328125 -0.75 -3.328125l0 -0.578125l1.171875 0.171875q-0.703125 2.28125 -2.40625 3.71875q-1.703125 1.4375 -3.8125 2.125q-2.109375 0.671875 -4.171875 0.671875q-2.578125 0 -4.8125 -0.875q-2.21875 -0.890625 -3.546875 -2.671875q-1.3125 -1.796875 -1.3125 -4.4375q0 -3.28125 2.203125 -5.421875q2.203125 -2.140625 6.125 -2.90625l11.609375 -2.28125l0 3.859375l-9.4375 1.9375q-2.875 0.59375 -4.28125 1.65625q-1.40625 1.046875 -1.40625 2.921875q0 1.8125 1.4375 2.96875q1.4375 1.140625 4.078125 1.140625q1.703125 0 3.25 -0.4375q1.5625 -0.453125 2.78125 -1.359375q1.234375 -0.90625 1.9375 -2.28125q0.703125 -1.375 0.703125 -3.25l0 -8.109375zm16.07441 18.953125l0 -29.328125l4.109375 0l0.296875 4.578125q1.578125 -2.703125 4.125 -3.9375q2.5625 -1.234375 5.25 -1.234375q3.109375 0 5.859375 1.421875q2.765625 1.40625 4.234375 4.328125q0.9375 -1.984375 2.640625 -3.25q1.703125 -1.265625 3.71875 -1.875q2.03125 -0.625 3.84375 -0.625q2.8125 0 5.359375 1.1875q2.5625 1.171875 4.203125 3.640625q1.640625 2.453125 1.640625 6.328125l0 18.765625l-4.6875 0l0 -18.296875q0 -4.0 -2.0 -5.75q-1.984375 -1.765625 -4.921875 -1.765625q-2.28125 0 -4.28125 1.125q-2.0 1.109375 -3.203125 3.28125q-1.203125 2.171875 -1.203125 5.328125l0 16.078125l-4.6875 0l0 -18.296875q0 -4.0 -2.0 -5.75q-1.984375 -1.765625 -4.921875 -1.765625q-1.9375 0 -3.96875 1.03125q-2.015625 1.03125 -3.375 3.265625q-1.34375 2.21875 -1.34375 5.859375l0 15.65625l-4.6875 0zm68.16501 0.59375q-4.171875 0 -7.4375 -1.8125q-3.25 -1.828125 -5.0625 -5.25q-1.8125 -3.4375 -1.8125 -8.1875q0 -4.765625 1.8125 -8.1875q1.8125 -3.4375 4.984375 -5.25q3.171875 -1.828125 7.21875 -1.828125q4.109375 0 7.0 1.765625q2.90625 1.765625 4.4375 4.78125q1.53125 3.015625 1.53125 6.78125q0 0.984375 -0.0625 1.8125q-0.0625 0.828125 -0.171875 1.46875l-23.703125 0l0 -4.171875l21.640625 0l-2.40625 0.46875q0 -4.21875 -2.3125 -6.5q-2.3125 -2.296875 -6.078125 -2.296875q-2.875 0 -4.953125 1.328125q-2.078125 1.3125 -3.21875 3.8125q-1.140625 2.484375 -1.140625 6.015625q0 3.453125 1.171875 5.984375q1.171875 2.515625 3.3125 3.84375q2.140625 1.3125 5.125 1.3125q3.234375 0 5.25 -1.234375q2.03125 -1.234375 3.265625 -3.34375l3.6875 2.171875q-1.109375 1.984375 -2.84375 3.453125q-1.734375 1.46875 -4.046875 2.265625q-2.3125 0.796875 -5.1875 0.796875zm32.14151 0q-4.28125 0 -7.890625 -1.8125q-3.609375 -1.828125 -5.546875 -5.171875l3.984375 -2.875q1.296875 2.703125 3.78125 4.234375q2.5 1.515625 6.015625 1.515625q3.109375 0 4.875 -1.203125q1.765625 -1.203125 1.765625 -3.140625q0 -1.234375 -0.796875 -2.25q-0.796875 -1.03125 -3.015625 -1.5l-7.046875 -1.46875q-4.28125 -0.875 -6.125 -2.921875q-1.84375 -2.0625 -1.84375 -5.109375q0 -2.40625 1.375 -4.40625q1.375 -2.0 3.921875 -3.203125q2.5625 -1.203125 6.015625 -1.203125q4.34375 0 7.328125 1.703125q3.0 1.703125 4.46875 4.8125l-3.9375 2.578125q-1.0 -2.578125 -3.234375 -3.78125q-2.21875 -1.203125 -4.625 -1.203125q-2.109375 0 -3.609375 0.59375q-1.5 0.578125 -2.296875 1.609375q-0.78125 1.03125 -0.78125 2.3125q0 1.296875 0.875 2.390625q0.890625 1.078125 3.296875 1.546875l7.328125 1.515625q4.109375 0.828125 5.75 2.703125q1.640625 1.875 1.640625 4.578125q0 2.75 -1.46875 4.84375q-1.46875 2.078125 -4.109375 3.203125q-2.640625 1.109375 -6.09375 1.109375z" fill-rule="nonzero"/></g></svg>