<svg version="1.1" viewBox="0.0 0.0 233.66929133858267 100.0" fill="none" stroke="none" stroke-linecap="square" stroke-miterlimit="10" xmlns:xlink="http://www.w3.org/1999/xlink" xmlns="http://www.w3.org/2000/svg"><clipPath id="p.0"><path d="m0 0l233.6693 0l0 100.0l-233.6693 0l0 -100.0z" clip-rule="nonzero"/></clipPath><g clip-path="url(#p.0)"><path fill="#000000" fill-opacity="0.0" d="m0 0l233.6693 0l0 100.0l-233.6693 0z" fill-rule="evenodd"/><path fill="#000000" fill-opacity="0.0" d="m0.002624672 0l233.6693 0l0 100.0l-233.6693 0z" fill-rule="evenodd"/><path fill="#000000" d="m72.25193 32.401253l0 38.71875l-10.078125 0l0 -38.71875l10.078125 0zm-24.859375 0l0 38.71875l-10.09375 0l0 -38.71875l10.09375 0zm20.171875 15.3125l0 7.796875l-25.34375 0l0 -7.796875l25.34375 0zm26.331299 -6.515625q4.640625 0 8.125 1.796875q3.5 1.78125 5.453125 5.21875q1.96875 3.4375 1.96875 8.25q0 4.796875 -1.96875 8.234375q-1.953125 3.4375 -5.453125 5.234375q-3.484375 1.78125 -8.125 1.78125q-4.515625 0 -8.03125 -1.78125q-3.515625 -1.796875 -5.484375 -5.234375q-1.96875 -3.4375 -1.96875 -8.234375q0 -4.8125 1.96875 -8.25q1.96875 -3.4375 5.484375 -5.21875q3.515625 -1.796875 8.03125 -1.796875zm0 7.109375q-1.6875 0 -2.921875 0.828125q-1.234375 0.8125 -1.890625 2.640625q-0.640625 1.8125 -0.640625 4.6875q0 2.859375 0.640625 4.65625q0.65625 1.78125 1.890625 2.640625q1.234375 0.84375 2.921875 0.84375q1.765625 0 3.0 -0.84375q1.234375 -0.859375 1.875 -2.640625q0.640625 -1.796875 0.640625 -4.65625q0 -2.875 -0.640625 -4.6875q-0.640625 -1.828125 -1.875 -2.640625q-1.234375 -0.828125 -3.0 -0.828125zm21.181946 22.8125l0 -29.328125l8.921875 0l0.28125 5.6875q1.40625 -3.109375 3.9531174 -4.6875q2.5625 -1.59375 5.90625 -1.59375q3.28125 0 5.6875 1.46875q2.40625 1.46875 3.578125 4.34375q0.9375 -1.9375 2.4375 -3.21875q1.5 -1.296875 3.421875 -1.9375q1.9375 -0.65625 4.0 -0.65625q2.9375 0 5.15625 1.15625q2.234375 1.140625 3.546875 3.453125q1.328125 2.3125 1.328125 5.78125l0 19.53125l-9.96875 0l0 -17.25q0 -2.8125 -1.09375 -3.921875q-1.078125 -1.125 -2.90625 -1.125q-1.46875 0 -2.671875 0.734375q-1.1875 0.734375 -1.84375 2.203125q-0.640625 1.46875 -0.640625 3.703125l0 15.65625l-9.96875 0l0 -17.25q0 -2.8125 -1.125 -3.921875q-1.109375 -1.125 -2.859375 -1.125q-1.359375 0 -2.5624924 0.71875q-1.203125 0.703125 -1.90625 2.203125q-0.703125 1.484375 -0.703125 3.890625l0 15.484375l-9.96875 0zm69.50799 0.59375q-4.875 0 -8.421875 -1.8125q-3.546875 -1.828125 -5.484375 -5.234375q-1.9375 -3.40625 -1.9375 -8.203125q0 -4.8125 1.9375 -8.21875q1.9375 -3.40625 5.421875 -5.21875q3.5 -1.828125 8.015625 -1.828125q4.640625 0 7.890625 1.796875q3.25 1.78125 4.953125 4.921875q1.703125 3.140625 1.703125 7.1875q0 1.0625 -0.0625 2.125q-0.0625 1.046875 -0.171875 1.75l-23.234375 0l0 -5.34375l18.828125 0l-4.75 1.828125q0 -3.53125 -1.265625 -5.40625q-1.25 -1.875 -3.890625 -1.875q-1.875 0 -3.203125 0.890625q-1.3125 0.875 -1.984375 2.75q-0.671875 1.875 -0.671875 4.8125q0 2.875 0.75 4.671875q0.765625 1.78125 2.171875 2.578125q1.40625 0.78125 3.40625 0.78125q2.234375 0 3.546875 -0.875q1.328125 -0.890625 1.96875 -2.46875l7.96875 2.640625q-0.8125 2.515625 -2.84375 4.25q-2.015625 1.734375 -4.8125 2.625q-2.78125 0.875 -5.828125 0.875z" fill-rule="nonzero"/></g></svg>