<svg version="1.1" viewBox="0.0 0.0 420.244094488189 134.50918635170603" fill="none" stroke="none" stroke-linecap="square" stroke-miterlimit="10" xmlns:xlink="http://www.w3.org/1999/xlink" xmlns="http://www.w3.org/2000/svg"><clipPath id="p.0"><path d="m0 0l420.24408 0l0 134.50919l-420.24408 0l0 -134.50919z" clip-rule="nonzero"/></clipPath><g clip-path="url(#p.0)"><path fill="#000000" fill-opacity="0.0" d="m0 0l420.24408 0l0 134.50919l-420.24408 0z" fill-rule="evenodd"/><path fill="#000000" fill-opacity="0.0" d="m-0.005249344 0l420.25195 0l0 134.51968l-420.25195 0z" fill-rule="evenodd"/><path fill="#000000" d="m82.18825 49.661095l0 38.71875l-4.453125 0l0 -24.34375l0.53125 -10.203125l-0.0625 0l-12.71875 34.546875l-4.0 0l-12.71875 -34.546875l-0.0625 0l0.53125 10.203125l0 24.34375l-4.46875 0l0 -38.71875l7.21875 0l8.515625 23.53125l2.921875 9.671875l0.125 0l2.984375 -9.625l8.453125 -23.578125l7.203125 0zm28.568527 19.765625q0 -3.28125 -1.765625 -5.0625q-1.75 -1.796875 -4.96875 -1.796875q-3.0625 0 -5.171875 1.328125q-2.109375 1.3125 -3.109375 4.25l-3.8125 -2.34375q1.171875 -3.296875 4.34375 -5.3125q3.171875 -2.03125 7.859375 -2.03125q3.171875 0 5.75 1.09375q2.578125 1.078125 4.078125 3.28125q1.5 2.203125 1.5 5.65625l0 14.203125q0 2.109375 2.21875 2.109375q1.125 0 2.171875 -0.296875l-0.234375 3.703125q-1.171875 0.578125 -3.046875 0.578125q-1.703125 0 -3.0625 -0.640625q-1.34375 -0.640625 -2.109375 -1.953125q-0.75 -1.328125 -0.75 -3.328125l0 -0.578125l1.171875 0.171875q-0.703125 2.28125 -2.40625 3.71875q-1.703125 1.4375 -3.8125 2.125q-2.109375 0.671875 -4.171875 0.671875q-2.578125 0 -4.8125 -0.875q-2.21875 -0.890625 -3.546875 -2.671875q-1.3125 -1.796875 -1.3125 -4.4375q0 -3.28125 2.203125 -5.421875q2.203125 -2.140625 6.125 -2.90625l11.609375 -2.28125l0 3.859375l-9.4375 1.9375q-2.875 0.59375 -4.28125 1.65625q-1.40625 1.046875 -1.40625 2.921875q0 1.8125 1.4375 2.96875q1.4375 1.140625 4.078125 1.140625q1.703125 0 3.25 -0.4375q1.5625 -0.453125 2.78125 -1.359375q1.234375 -0.90625 1.9375 -2.28125q0.703125 -1.375 0.703125 -3.25l0 -8.109375zm18.418167 -16.0q-1.578125 0 -2.546875 -0.96875q-0.96875 -0.96875 -0.96875 -2.5625q0 -1.578125 0.96875 -2.546875q0.96875 -0.96875 2.546875 -0.96875q1.59375 0 2.5625 0.96875q0.96875 0.96875 0.96875 2.546875q0 1.59375 -0.96875 2.5625q-0.96875 0.96875 -2.5625 0.96875zm2.34375 5.625l0 29.328125l-4.6875 0l0 -29.328125l4.6875 0zm10.915054 29.328125l0 -29.328125l4.109375 0l0.40625 6.5625l-0.765625 -0.640625q0.9375 -2.34375 2.515625 -3.78125q1.59375 -1.4375 3.671875 -2.078125q2.09375 -0.65625 4.3125 -0.65625q3.171875 0 5.75 1.203125q2.578125 1.203125 4.125 3.671875q1.5625 2.46875 1.5625 6.28125l0 18.765625l-4.6875 0l0 -17.125q0 -4.875 -2.078125 -6.78125q-2.078125 -1.90625 -5.140625 -1.90625q-2.109375 0 -4.21875 1.0q-2.109375 1.0 -3.5 3.234375q-1.375 2.21875 -1.375 5.96875l0 15.609375l-4.6875 0z" fill-rule="nonzero"/><path fill="#9900ff" d="m192.7107 49.08297q5.390625 0 9.515625 1.671875q4.140625 1.671875 7.1875 4.890625l-4.859375 6.515625q-2.53125 -2.640625 -5.4375 -3.953125q-2.890625 -1.328125 -6.59375 -1.328125q-2.171875 0 -3.515625 0.46875q-1.34375 0.46875 -1.9375 1.296875q-0.578125 0.8125 -0.578125 1.875q0 1.234375 1.140625 2.09375q1.140625 0.84375 3.71875 1.421875l6.515625 1.46875q5.8125 1.34375 8.5 3.9375q2.703125 2.578125 2.703125 6.859375q0 4.09375 -2.109375 6.953125q-2.109375 2.84375 -5.8125 4.28125q-3.6875 1.4375 -8.4375 1.4375q-3.875 0 -7.40625 -0.84375q-3.515625 -0.859375 -6.328125 -2.4375q-2.8125 -1.59375 -4.75 -3.640625l4.875 -6.75q1.453125 1.703125 3.59375 3.03125q2.15625 1.3125 4.703125 2.078125q2.546875 0.75 5.1875 0.75q2.046875 0 3.421875 -0.40625q1.390625 -0.40625 2.03125 -1.21875q0.640625 -0.828125 0.640625 -1.953125q0 -1.234375 -0.875 -2.078125q-0.875 -0.84375 -3.34375 -1.4375l-7.15625 -1.578125q-3.28125 -0.765625 -5.84375 -2.03125q-2.546875 -1.265625 -4.015625 -3.40625q-1.453125 -2.140625 -1.453125 -5.359375q0 -3.640625 1.984375 -6.484375q2.0 -2.84375 5.75 -4.484375q3.75 -1.640625 8.984375 -1.640625z" fill-rule="nonzero"/><path fill="#41da00" d="m247.96582 49.661095l0 7.8125l-12.625 0l0 30.90625l-10.078125 0l0 -30.90625l-12.671875 0l0 -7.8125l35.375 0z" fill-rule="nonzero"/><path fill="#ff9900" d="m253.70583 88.379845l0 -38.71875l30.156235 0l0 7.8125l-20.0625 0l0 7.859375l15.953125 0l0 7.328125l-15.953125 0l0 7.921875l20.8125 0l0 7.796875l-30.906235 0z" fill-rule="nonzero"/><path fill="#ff0000" d="m287.43076 88.379845l13.609375 -38.71875l12.078125 0l13.546875 38.71875l-10.375 0l-7.5625 -24.875l-1.703125 -6.09375l-0.125 0l-1.578125 6.046875l-7.75 24.921875l-10.140625 0zm8.859375 -8.734375l0 -6.875l21.53125 0l0 6.875l-21.53125 0z" fill-rule="nonzero"/><path fill="#0249bd" d="m377.51984 49.661095l0 38.71875l-8.921875 0l0 -17.765625l0.296875 -11.921875l-0.109375 0l-9.5625 29.6875l-8.15625 0l-9.5625 -29.6875l-0.109375 0l0.28125 11.921875l0 17.765625l-8.96875 0l0 -38.71875l14.375 0l6.09375 19.71875l2.171875 8.203125l0.125 0l2.21875 -8.15625l6.046875 -19.765625l13.78125 0z" fill-rule="nonzero"/></g></svg>