<svg version="1.1" viewBox="0.0 0.0 485.9501312335958 100.0" fill="none" stroke="none" stroke-linecap="square" stroke-miterlimit="10" xmlns:xlink="http://www.w3.org/1999/xlink" xmlns="http://www.w3.org/2000/svg"><clipPath id="p.0"><path d="m0 0l485.95013 0l0 100.0l-485.95013 0l0 -100.0z" clip-rule="nonzero"/></clipPath><g clip-path="url(#p.0)"><path fill="#000000" fill-opacity="0.0" d="m0 0l485.95013 0l0 100.0l-485.95013 0z" fill-rule="evenodd"/><path fill="#000000" fill-opacity="0.0" d="m0 0.0131233595l485.95276 0l0 100.0l-485.95276 0z" fill-rule="evenodd"/><path fill="#000000" d="m70.06412 26.01625l0 52.796875l-6.09375 0l0 -33.203125l0.71875 -13.921875l-0.078125 0l-17.359375 47.125l-5.4375 0l-17.359375 -47.125l-0.078125 0l0.71875 13.921875l0 33.203125l-6.078125 0l0 -52.796875l9.84375 0l11.59375 32.078125l4.0 13.203125l0.15625 0l4.078125 -13.125l11.53125 -32.15625l9.84375 0zm38.94931 26.953125q0 -4.46875 -2.40625 -6.90625q-2.390625 -2.453125 -6.796875 -2.453125q-4.15625 0 -7.03125 1.8125q-2.875 1.796875 -4.25 5.796875l-5.1875 -3.203125q1.59375 -4.484375 5.90625 -7.234375q4.328125 -2.765625 10.734375 -2.765625q4.3125 0 7.828125 1.484375q3.53125 1.46875 5.5625 4.46875q2.046875 3.0 2.046875 7.71875l0 19.359375q0 2.890625 3.03125 2.890625q1.53125 0 2.96875 -0.40625l-0.328125 5.046875q-1.59375 0.796875 -4.15625 0.796875q-2.3125 0 -4.15625 -0.875q-1.84375 -0.890625 -2.890625 -2.6875q-1.03125 -1.796875 -1.03125 -4.515625l0 -0.796875l1.59375 0.234375q-0.953125 3.125 -3.28125 5.078125q-2.3125 1.953125 -5.203125 2.875q-2.875 0.921875 -5.671875 0.921875q-3.515625 0 -6.5625 -1.1875q-3.03125 -1.203125 -4.84375 -3.640625q-1.796875 -2.453125 -1.796875 -6.046875q0 -4.484375 3.0 -7.40625q3.0 -2.921875 8.359375 -3.953125l15.84375 -3.125l0 5.28125l-12.875 2.640625q-3.921875 0.796875 -5.84375 2.25q-1.921875 1.4375 -1.921875 3.984375q0 2.484375 1.953125 4.046875q1.96875 1.5625 5.5625 1.5625q2.328125 0 4.4375 -0.59375q2.125 -0.609375 3.796875 -1.84375q1.6875 -1.25 2.640625 -3.125q0.96875 -1.875 0.96875 -4.4375l0 -11.046875zm25.123703 -21.84375q-2.15625 0 -3.484375 -1.3125q-1.3125 -1.3125 -1.3125 -3.484375q0 -2.15625 1.3125 -3.46875q1.328125 -1.328125 3.484375 -1.328125q2.15625 0 3.46875 1.328125q1.328125 1.3125 1.328125 3.46875q0 2.171875 -1.328125 3.484375q-1.3125 1.3125 -3.46875 1.3125zm3.203125 7.6875l0 40.0l-6.40625 0l0 -40.0l6.40625 0zm14.8737335 40.0l0 -40.0l5.609375 0l0.546875 8.953125l-1.03125 -0.875q1.28125 -3.203125 3.4375 -5.15625q2.15625 -1.96875 5.0 -2.84375q2.84375 -0.875 5.875 -0.875q4.328125 0 7.84375 1.640625q3.515625 1.640625 5.640625 5.0q2.125 3.359375 2.125 8.5625l0 25.59375l-6.40625 0l0 -23.359375q0 -6.640625 -2.84375 -9.234375q-2.828125 -2.609375 -7.0 -2.609375q-2.875 0 -5.765625 1.359375q-2.875 1.359375 -4.75 4.40625q-1.875 3.03125 -1.875 8.15625l0 21.28125l-6.40625 0z" fill-rule="nonzero"/><path fill="#9900ff" d="m220.78082 25.219376q7.359375 0 13.0 2.28125q5.640625 2.265625 9.796875 6.671875l-6.640625 8.875q-3.4375 -3.59375 -7.40625 -5.390625q-3.953125 -1.796875 -9.0 -1.796875q-2.953125 0 -4.796875 0.640625q-1.84375 0.625 -2.640625 1.75q-0.796875 1.125 -0.796875 2.5625q0 1.6875 1.5625 2.84375q1.5625 1.15625 5.078125 1.953125l8.875 2.0q7.921875 1.84375 11.59375 5.375q3.6875 3.515625 3.6875 9.34375q0 5.609375 -2.875 9.484375q-2.875 3.875 -7.921875 5.84375q-5.046875 1.953125 -11.515625 1.953125q-5.28125 0 -10.09375 -1.15625q-4.796875 -1.15625 -8.640625 -3.3125q-3.828125 -2.171875 -6.46875 -4.96875l6.640625 -9.203125q2.0 2.328125 4.921875 4.125q2.921875 1.796875 6.390625 2.84375q3.484375 1.03125 7.078125 1.03125q2.8125 0 4.6875 -0.546875q1.875 -0.5625 2.75 -1.6875q0.890625 -1.125 0.890625 -2.640625q0 -1.6875 -1.203125 -2.84375q-1.203125 -1.15625 -4.5625 -1.953125l-9.75 -2.171875q-4.484375 -1.03125 -7.96875 -2.75q-3.46875 -1.71875 -5.46875 -4.640625q-2.0 -2.921875 -2.0 -7.328125q0 -4.953125 2.71875 -8.828125q2.71875 -3.890625 7.828125 -6.125q5.125 -2.234375 12.25 -2.234375z" fill-rule="nonzero"/><path fill="#41da00" d="m296.13077 26.01625l0 10.640625l-17.1875 0l0 42.15625l-13.765625 0l0 -42.15625l-17.28125 0l0 -10.640625l48.234375 0z" fill-rule="nonzero"/><path fill="#ff9900" d="m303.98007 78.813126l0 -52.796875l41.109375 0l0 10.640625l-27.359375 0l0 10.71875l21.765625 0l0 10.0l-21.765625 0l0 10.796875l28.40625 0l0 10.640625l-42.15625 0z" fill-rule="nonzero"/><path fill="#ff0000" d="m348.92877 78.813126l18.5625 -52.796875l16.484375 0l18.484375 52.796875l-14.15625 0l-10.328125 -33.921875l-2.3125 -8.3125l-0.171875 0l-2.15625 8.234375l-10.5625 34.0l-13.84375 0zm12.09375 -11.921875l0 -9.359375l29.359375 0l0 9.359375l-29.359375 0z" fill-rule="nonzero"/><path fill="#0249bd" d="m469.72934 26.01625l0 52.796875l-12.15625 0l0 -24.234375l0.40625 -16.25l-0.15625 0l-13.046875 40.484375l-11.125 0l-13.03125 -40.484375l-0.15625 0l0.390625 16.25l0 24.234375l-12.234375 0l0 -52.796875l19.59375 0l8.328125 26.875l2.953125 11.203125l0.15625 0l3.046875 -11.125l8.234375 -26.953125l18.796875 0z" fill-rule="nonzero"/></g></svg>