<svg version="1.1" viewBox="0.0 0.0 800.0 600.0" fill="none" stroke="none" stroke-linecap="square" stroke-miterlimit="10" xmlns:xlink="http://www.w3.org/1999/xlink" xmlns="http://www.w3.org/2000/svg"><clipPath id="p.0"><path d="m0 0l800.0 0l0 600.0l-800.0 0l0 -600.0z" clip-rule="nonzero"/></clipPath><g clip-path="url(#p.0)"><path fill="#000000" fill-opacity="0.0" d="m0 0l800.0 0l0 600.0l-800.0 0z" fill-rule="evenodd"/><path fill="#000000" fill-opacity="0.0" d="m133.73228 0l180.0945 0l0 90.48819l-180.0945 0z" fill-rule="evenodd"/><path fill="#000000" d="m152.35728 25.3825l-6.40625 -0.71875l0 -2.921875l15.546875 0l8.28125 26.390625l1.921875 7.453125l1.765625 -7.453125l8.21875 -26.390625l15.421875 0l0 2.921875l-6.453125 0.71875l4.6875 36.421875l5.109375 0.640625l0 2.875l-16.890625 0l0 -2.875l5.328125 -0.578125l-2.640625 -26.34375l-1.21875 -11.328125l-2.46875 8.453125l-9.796875 30.671875l-3.8125 0l-9.5 -28.09375l-3.46875 -11.078125l-1.046875 11.375l-2.34375 26.34375l5.796875 0.578125l0 2.875l-15.296875 0l0 -2.875l4.984375 -0.578125l4.28125 -36.484375zm51.08528 31.140625q0 -5.515625 5.515625 -8.125q5.515625 -2.609375 13.953125 -2.78125l0 -1.640625q0 -2.765625 -0.59375 -4.34375q-0.578125 -1.59375 -2.015625 -2.3125q-1.4375 -0.734375 -4.078125 -0.734375q-2.984375 0 -5.359375 0.84375q-2.375 0.84375 -4.71875 2.078125l-1.46875 -3.046875q0.765625 -0.640625 2.8125 -1.6875q2.046875 -1.0625 4.75 -1.890625q2.703125 -0.828125 5.390625 -0.828125q4.171875 0 6.609375 1.15625q2.4375 1.140625 3.484375 3.671875q1.0625 2.515625 1.0625 6.734375l0 18.828125l3.453125 0l0 2.578125q-1.171875 0.296875 -2.96875 0.59375q-1.78125 0.296875 -3.125 0.296875q-1.640625 0 -2.234375 -0.5q-0.578125 -0.5 -0.578125 -2.203125l0 -1.9375q-1.765625 1.765625 -4.328125 3.234375q-2.546875 1.453125 -5.765625 1.453125q-4.21875 0 -7.015625 -2.421875q-2.78125 -2.4375 -2.78125 -7.015625zm12.3125 5.453125q1.53125 0 3.515625 -0.9375q2.0 -0.9375 3.640625 -2.234375l0 -10.078125q-6.390625 0 -9.65625 1.96875q-3.25 1.953125 -3.25 5.125q0 3.171875 1.546875 4.671875q1.5625 1.484375 4.203125 1.484375zm27.515518 -35.078125q-1.875 0 -2.8125 -1.046875q-0.9375 -1.0625 -0.9375 -2.703125q0 -1.875 1.140625 -3.109375q1.140625 -1.234375 3.140625 -1.234375q1.984375 0 2.921875 1.0625q0.9375 1.046875 0.9375 2.6875q0 2.0 -1.140625 3.171875q-1.140625 1.171875 -3.1875 1.171875l-0.0625 0zm-2.34375 10.390625l-4.46875 -1.0625l0 -3.109375l9.09375 -1.109375l0.125 0l1.34375 1.046875l0 28.921875l4.6875 0.46875l0 2.875l-15.53125 0l0 -2.875l4.75 -0.53125l0 -24.625zm18.470016 0l-4.21875 -1.0625l0 -3.171875l8.390625 -1.046875l0.171875 0l1.234375 1.046875l0 2.46875l-0.0625 1.40625q2.109375 -1.875 5.5625 -3.390625q3.46875 -1.53125 6.640625 -1.53125q3.6875 0 5.703125 1.40625q2.03125 1.40625 2.859375 4.3125q0.828125 2.90625 0.828125 7.828125l0 16.421875l4.09375 0.40625l0 2.9375l-13.890625 0l0 -2.875l3.625 -0.46875l0 -16.484375q0 -3.453125 -0.46875 -5.421875q-0.46875 -1.96875 -1.765625 -2.9375q-1.28125 -0.96875 -3.75 -0.96875q-2.109375 0 -4.515625 1.0625q-2.40625 1.046875 -4.28125 2.46875l0 22.21875l4.0 0.53125l0 2.875l-13.84375 0l0 -2.875l3.6875 -0.53125l0 -24.625z" fill-rule="nonzero"/><path fill="#000000" fill-opacity="0.0" d="m277.65878 56.27034l61.606323 0l0 349.03937l-61.606323 0z" fill-rule="evenodd"/><path fill="#9900ff" d="m310.8467 109.29034q-4.859375 0 -8.34375 -2.171875q-3.484375 -2.1875 -5.3125 -6.125q-1.8125 -3.9375 -1.8125 -9.203125q0 -4.9375 2.125 -8.828125q2.140625 -3.90625 5.8125 -6.0625q3.671875 -2.15625 8.203125 -2.15625q2.3125 0 4.46875 0.375q2.15625 0.359375 3.46875 0.671875q1.3125 0.3125 1.625 0.40625l-0.359375 7.390625l-2.359375 0l-1.0 -5.25q-0.671875 -0.59375 -2.4375 -1.0q-1.765625 -0.40625 -4.3125 -0.40625q-3.125 0 -5.625 1.703125q-2.484375 1.6875 -3.921875 4.953125q-1.421875 3.265625 -1.421875 7.796875q0 4.265625 1.25 7.84375q1.25 3.578125 3.78125 5.734375q2.546875 2.15625 6.25 2.15625q2.59375 0 4.046875 -0.421875q1.453125 -0.4375 2.4375 -1.265625l1.8125 -4.25l2.234375 0.3125l-1.140625 6.078125q-1.09375 0.046875 -2.625 0.578125q-1.640625 0.546875 -3.140625 0.84375q-1.484375 0.296875 -3.703125 0.296875z" fill-rule="nonzero"/><path fill="#9900ff" d="m308.15305 131.95596l-4.390625 -0.5l0 -1.9375l12.5625 0l0 1.9375l-4.40625 0.5l0 28.875l4.40625 0.453125l0 1.90625l-12.5625 0l0 -1.953125l4.390625 -0.40625l0 -28.875z" fill-rule="nonzero"/><path fill="#9900ff" d="m299.92484 186.35594l-3.8125 -0.5l0 -1.9375l22.4375 0l0.625 6.65625l-2.171875 0l-1.21875 -4.34375l-12.15625 -0.234375l0 13.1875l8.34375 -0.140625l0.59375 -3.75l2.265625 0l0 10.015625l-2.265625 0l-0.59375 -3.859375l-8.34375 -0.125l0 13.953125l13.875 -0.359375l2.3125 -5.671875l2.171875 0.6875l-1.40625 7.65625l-24.5625 0l0 -1.953125l3.90625 -0.40625l0 -28.875z" fill-rule="nonzero"/><path fill="#9900ff" d="m296.57056 240.75594l-3.640625 -0.5l0 -1.9375l7.3125 0l16.03125 23.250015l2.59375 4.53125l0 -25.343765l-3.984375 -0.5l0 -1.9375l10.328125 0l0 1.9375l-3.71875 0.5l0 31.23439l-2.359375 0l-16.21875 -23.343765l-3.71875 -6.03125l0 27.01564l4.125 0.40625l0 1.953125l-10.390625 0l0 -1.953125l3.640625 -0.453125l0 -28.82814z" fill-rule="nonzero"/><path fill="#9900ff" d="m310.8467 326.89032q-4.859375 0 -8.34375 -2.171875q-3.484375 -2.1875 -5.3125 -6.125q-1.8125 -3.9375 -1.8125 -9.203125q0 -4.9375 2.125 -8.828125q2.140625 -3.90625 5.8125 -6.0625q3.671875 -2.15625 8.203125 -2.15625q2.3125 0 4.46875 0.375q2.15625 0.359375 3.46875 0.671875q1.3125 0.3125 1.625 0.40625l-0.359375 7.390625l-2.359375 0l-1.0 -5.25q-0.671875 -0.59375 -2.4375 -1.0q-1.765625 -0.40625 -4.3125 -0.40625q-3.125 0 -5.625 1.703125q-2.484375 1.6875 -3.921875 4.953125q-1.421875 3.265625 -1.421875 7.796875q0 4.265625 1.25 7.84375q1.25 3.578125 3.78125 5.734375q2.546875 2.15625 6.25 2.15625q2.59375 0 4.046875 -0.421875q1.453125 -0.4375 2.4375 -1.265625l1.8125 -4.25l2.234375 0.3125l-1.140625 6.078125q-1.09375 0.046875 -2.625 0.578125q-1.640625 0.546875 -3.140625 0.84375q-1.484375 0.296875 -3.703125 0.296875z" fill-rule="nonzero"/><path fill="#9900ff" d="m299.92484 349.55594l-3.8125 -0.5l0 -1.9375l22.4375 0l0.625 6.65625l-2.171875 0l-1.21875 -4.34375l-12.15625 -0.234375l0 13.1875l8.34375 -0.140625l0.59375 -3.75l2.265625 0l0 10.015625l-2.265625 0l-0.59375 -3.859375l-8.34375 -0.125l0 13.953125l13.875 -0.359375l2.3125 -5.671875l2.171875 0.6875l-1.40625 7.65625l-24.5625 0l0 -1.953125l3.90625 -0.40625l0 -28.875z" fill-rule="nonzero"/><path fill="#000000" fill-opacity="0.0" d="m313.82657 56.27034l61.606293 0l0 184.22047l-61.606293 0z" fill-rule="evenodd"/><path fill="#41da00" d="m336.0926 77.55596l-3.8125 -0.5l0 -1.9375l22.4375 0l0.625 6.65625l-2.171875 0l-1.21875 -4.34375l-12.15625 -0.234375l0 13.1875l8.34375 -0.140625l0.59375 -3.75l2.265625 0l0 10.015625l-2.265625 0l-0.59375 -3.859375l-8.34375 -0.125l0 13.953125l13.875 -0.359375l2.3125 -5.671875l2.171875 0.6875l-1.40625 7.65625l-24.5625 0l0 -1.953125l3.90625 -0.40625l0 -28.875z" fill-rule="nonzero"/><path fill="#41da00" d="m347.01447 163.69034q-4.859375 0 -8.34375 -2.171875q-3.484375 -2.1875 -5.3125 -6.125q-1.8125 -3.9375 -1.8125 -9.203125q0 -4.9375 2.125 -8.828125q2.140625 -3.90625 5.8125 -6.0625q3.671875 -2.15625 8.203125 -2.15625q2.3125 0 4.46875 0.375q2.15625 0.359375 3.46875 0.671875q1.3125 0.3125 1.625 0.40625l-0.359375 7.390625l-2.359375 0l-1.0 -5.25q-0.671875 -0.59375 -2.4375 -1.0q-1.765625 -0.40625 -4.3125 -0.40625q-3.125 0 -5.625 1.703125q-2.484375 1.6875 -3.921875 4.953125q-1.421875 3.265625 -1.421875 7.796875q0 4.265625 1.25 7.84375q1.25 3.578125 3.78125 5.734375q2.546875 2.15625 6.25 2.15625q2.59375 0 4.046875 -0.421875q1.453125 -0.4375 2.4375 -1.265625l1.8125 -4.25l2.234375 0.3125l-1.140625 6.078125q-1.09375 0.046875 -2.625 0.578125q-1.640625 0.546875 -3.140625 0.84375q-1.484375 0.296875 -3.703125 0.296875z" fill-rule="nonzero"/><path fill="#41da00" d="m332.2514 186.35594l-3.71875 -0.5l0 -1.9375l11.390625 0l0 1.9375l-3.953125 0.5l0 12.734375l17.3125 0l0 -12.734375l-3.75 -0.5l0 -1.9375l11.234375 0l0 1.9375l-3.71875 0.5l0 28.875l3.71875 0.40625l0 1.953125l-11.28125 0l0 -1.953125l3.796875 -0.40625l0 -13.734375l-17.3125 0l0 13.734375l3.984375 0.40625l0 1.953125l-11.546875 0l0 -1.953125l3.84375 -0.40625l0 -28.875z" fill-rule="nonzero"/><path fill="#000000" fill-opacity="0.0" d="m356.25198 56.27034l55.118103 0l0 568.8189l-55.118103 0z" fill-rule="evenodd"/><path fill="#ff9900" d="m371.91965 77.55596l-3.640625 -0.5l0 -1.9375l7.3125 0l16.03125 23.25l2.59375 4.53125l0 -25.34375l-3.984375 -0.5l0 -1.9375l10.328125 0l0 1.9375l-3.71875 0.5l0 31.234375l-2.359375 0l-16.21875 -23.34375l-3.71875 -6.03125l0 27.015625l4.125 0.40625l0 1.953125l-10.390625 0l0 -1.953125l3.640625 -0.453125l0 -28.828125z" fill-rule="nonzero"/><path fill="#ff9900" d="m384.85056 163.69034q-4.796875 0 -8.34375 -2.171875q-3.53125 -2.1875 -5.390625 -5.984375q-1.859375 -3.8125 -1.859375 -8.609375q0 -5.53125 2.234375 -9.546875q2.25 -4.015625 6.109375 -6.125q3.859375 -2.109375 8.65625 -2.109375q3.0 0 5.34375 0.421875q2.359375 0.40625 4.90625 0.984375l-0.359375 7.53125l-2.359375 0l-1.0 -5.21875q-0.734375 -0.578125 -2.4375 -1.046875q-1.6875 -0.484375 -4.5 -0.484375q-3.578125 0 -6.375 1.625q-2.78125 1.625 -4.375 4.875q-1.578125 3.234375 -1.578125 7.90625q0 4.171875 1.28125 7.75q1.296875 3.578125 3.921875 5.8125q2.640625 2.21875 6.40625 2.21875q2.390625 0 4.546875 -0.5625q2.15625 -0.578125 3.375 -1.53125l0 -10.328125l-6.296875 -0.453125l0 -2.40625l12.875 0l0 2.40625l-2.765625 0.453125l0 12.28125q-0.953125 0.046875 -3.21875 0.765625q-2.3125 0.734375 -4.28125 1.140625q-1.96875 0.40625 -4.515625 0.40625z" fill-rule="nonzero"/><path fill="#ff9900" d="m381.92276 186.35594l-4.390625 -0.5l0 -1.9375l12.5625 0l0 1.9375l-4.40625 0.5l0 28.875l4.40625 0.453125l0 1.90625l-12.5625 0l0 -1.953125l4.390625 -0.40625l0 -28.875z" fill-rule="nonzero"/><path fill="#ff9900" d="m371.91965 240.75594l-3.640625 -0.5l0 -1.9375l7.3125 0l16.03125 23.250015l2.59375 4.53125l0 -25.343765l-3.984375 -0.5l0 -1.9375l10.328125 0l0 1.9375l-3.71875 0.5l0 31.23439l-2.359375 0l-16.21875 -23.343765l-3.71875 -6.03125l0 27.01564l4.125 0.40625l0 1.953125l-10.390625 0l0 -1.953125l3.640625 -0.453125l0 -28.82814z" fill-rule="nonzero"/><path fill="#ff9900" d="m375.27393 295.15594l-3.8125 -0.5l0 -1.9375l22.4375 0l0.625 6.65625l-2.171875 0l-1.21875 -4.34375l-12.15625 -0.234375l0 13.1875l8.34375 -0.140625l0.59375 -3.75l2.265625 0l0 10.015625l-2.265625 0l-0.59375 -3.859375l-8.34375 -0.125l0 13.953125l13.875 -0.359375l2.3125 -5.671875l2.171875 0.6875l-1.40625 7.65625l-24.5625 0l0 -1.953125l3.90625 -0.40625l0 -28.875z" fill-rule="nonzero"/><path fill="#ff9900" d="m375.27393 349.55594l-3.8125 -0.5l0 -1.9375l22.4375 0l0.625 6.65625l-2.171875 0l-1.21875 -4.34375l-12.15625 -0.234375l0 13.1875l8.34375 -0.140625l0.59375 -3.75l2.265625 0l0 10.015625l-2.265625 0l-0.59375 -3.859375l-8.34375 -0.125l0 13.953125l13.875 -0.359375l2.3125 -5.671875l2.171875 0.6875l-1.40625 7.65625l-24.5625 0l0 -1.953125l3.90625 -0.40625l0 -28.875z" fill-rule="nonzero"/><path fill="#ff9900" d="m370.37045 433.23718l3.90625 -0.40625l0 -28.921875l-3.640625 -0.546875l0 -1.84375l5.53125 0q1.234375 0 3.5 -0.1875q2.171875 -0.1875 3.21875 -0.1875q6.484375 0 9.234375 2.1875q2.765625 2.171875 2.765625 6.703125q0 3.3125 -1.828125 5.984375q-1.828125 2.671875 -4.96875 3.578125q1.1875 0.765625 2.390625 2.5625q1.203125 1.796875 2.96875 4.96875q1.53125 2.765625 2.453125 4.15625q0.9375 1.375 1.671875 1.5l1.890625 0.5l0 1.90625l-5.296875 0q-0.71875 0 -1.671875 -1.53125q-0.953125 -1.546875 -2.671875 -5.0q-1.859375 -3.765625 -3.0625 -5.75q-1.203125 -2.0 -2.390625 -2.671875q-5.515625 0 -6.390625 -0.046875l0 12.640625l4.671875 0.40625l0 1.953125l-12.28125 0l0 -1.953125zm13.734375 -15.21875q3.125 0 4.9375 -1.953125q1.8125 -1.953125 1.8125 -5.71875q0 -3.3125 -1.859375 -5.140625q-1.859375 -1.84375 -6.46875 -1.84375q-1.59375 0 -3.140625 0.1875q-1.078125 0.09375 -1.40625 0.09375l0 14.328125q0.828125 0.046875 3.265625 0.046875l2.859375 0z" fill-rule="nonzero"/><path fill="#ff9900" d="m381.92276 458.35593l-4.390625 -0.5l0 -1.9375l12.5625 0l0 1.9375l-4.40625 0.5l0 28.875l4.40625 0.453125l0 1.90625l-12.5625 0l0 -1.953125l4.390625 -0.40625l0 -28.875z" fill-rule="nonzero"/><path fill="#ff9900" d="m371.91965 512.7559l-3.640625 -0.5l0 -1.9375l7.3125 0l16.03125 23.25l2.59375 4.53125l0 -25.34375l-3.984375 -0.5l0 -1.9375l10.328125 0l0 1.9375l-3.71875 0.5l0 31.234375l-2.359375 0l-16.21875 -23.34375l-3.71875 -6.03125l0 27.015625l4.125 0.40625l0 1.953125l-10.390625 0l0 -1.953125l3.640625 -0.453125l0 -28.828125z" fill-rule="nonzero"/><path fill="#ff9900" d="m384.85056 598.89026q-4.796875 0 -8.34375 -2.171875q-3.53125 -2.1875 -5.390625 -5.984375q-1.859375 -3.8125 -1.859375 -8.609375q0 -5.53125 2.234375 -9.546875q2.25 -4.015625 6.109375 -6.125q3.859375 -2.109375 8.65625 -2.109375q3.0 0 5.34375 0.421875q2.359375 0.40625 4.90625 0.984375l-0.359375 7.53125l-2.359375 0l-1.0 -5.21875q-0.734375 -0.578125 -2.4375 -1.046875q-1.6875 -0.484375 -4.5 -0.484375q-3.578125 0 -6.375 1.625q-2.78125 1.625 -4.375 4.875q-1.578125 3.234375 -1.578125 7.90625q0 4.171875 1.28125 7.75q1.296875 3.578125 3.921875 5.8125q2.640625 2.21875 6.40625 2.21875q2.390625 0 4.546875 -0.5625q2.15625 -0.578125 3.375 -1.53125l0 -10.328125l-6.296875 -0.453125l0 -2.40625l12.875 0l0 2.40625l-2.765625 0.453125l0 12.28125q-0.953125 0.046875 -3.21875 0.765625q-2.3125 0.734375 -4.28125 1.140625q-1.96875 0.40625 -4.515625 0.40625z" fill-rule="nonzero"/><path fill="#000000" fill-opacity="0.0" d="m400.0 56.27034l55.118103 0l0 129.29134l-55.118103 0z" fill-rule="evenodd"/><path fill="#ff0000" d="m414.11847 106.83721l3.90625 -0.40625l0 -28.921875l-3.640625 -0.546875l0 -1.84375l5.53125 0q1.234375 0 3.5 -0.1875q2.171875 -0.1875 3.21875 -0.1875q6.484375 0 9.234375 2.1875q2.765625 2.171875 2.765625 6.703125q0 3.3125 -1.828125 5.984375q-1.828125 2.671875 -4.96875 3.578125q1.1875 0.765625 2.390625 2.5625q1.203125 1.796875 2.96875 4.96875q1.53125 2.765625 2.453125 4.15625q0.9375 1.375 1.671875 1.5l1.890625 0.5l0 1.90625l-5.296875 0q-0.71875 0 -1.671875 -1.53125q-0.953125 -1.546875 -2.671875 -5.0q-1.859375 -3.765625 -3.0625 -5.75q-1.203125 -2.0 -2.390625 -2.671875q-5.515625 0 -6.390625 -0.046875l0 12.640625l4.671875 0.40625l0 1.953125l-12.28125 0l0 -1.953125zm13.734375 -15.21875q3.125 0 4.9375 -1.953125q1.8125 -1.953125 1.8125 -5.71875q0 -3.3125 -1.859375 -5.140625q-1.859375 -1.84375 -6.46875 -1.84375q-1.59375 0 -3.140625 0.1875q-1.078125 0.09375 -1.40625 0.09375l0 14.328125q0.828125 0.046875 3.265625 0.046875l2.859375 0z" fill-rule="nonzero"/><path fill="#ff0000" d="m425.54517 131.54971l-8.609375 0.28125l-1.453125 9.1875l-2.5 0l0.78125 -11.5l27.59375 0l0.5 11.5l-2.40625 0l-1.265625 -9.1875l-8.75 -0.28125l0 29.28125l6.484375 0.40625l0 1.953125l-16.3125 0l0 -1.953125l5.9375 -0.40625l0 -29.28125z" fill-rule="nonzero"/><path fill="#000000" fill-opacity="0.0" d="m447.6063 56.27034l61.606293 0l0 184.22047l-61.606293 0z" fill-rule="evenodd"/><path fill="#0249bd" d="m476.50253 74.79034l3.71875 0l11.375 31.640625l2.953125 0.40625l0 1.953125l-11.0625 0l0 -1.953125l3.984375 -0.40625l-2.40625 -7.203125l-14.140625 0l-2.390625 7.15625l4.03125 0.453125l0 1.953125l-10.203125 0l0 -1.953125l2.90625 -0.40625l11.234375 -31.640625zm2.625 6.984375l-1.265625 -4.3125l-1.21875 4.453125l-4.9375 14.953125l12.546875 0l-5.125 -15.09375z" fill-rule="nonzero"/><path fill="#0249bd" d="m476.39554 131.54971l-8.609375 0.28125l-1.453125 9.1875l-2.5 0l0.78125 -11.5l27.59375 0l0.5 11.5l-2.40625 0l-1.265625 -9.1875l-8.75 -0.28125l0 29.28125l6.484375 0.40625l0 1.953125l-16.3125 0l0 -1.953125l5.9375 -0.40625l0 -29.28125z" fill-rule="nonzero"/><path fill="#0249bd" d="m466.03113 186.35594l-3.71875 -0.5l0 -1.9375l11.390625 0l0 1.9375l-3.953125 0.5l0 12.734375l17.3125 0l0 -12.734375l-3.75 -0.5l0 -1.9375l11.234375 0l0 1.9375l-3.71875 0.5l0 28.875l3.71875 0.40625l0 1.953125l-11.28125 0l0 -1.953125l3.796875 -0.40625l0 -13.734375l-17.3125 0l0 13.734375l3.984375 0.40625l0 1.953125l-11.546875 0l0 -1.953125l3.84375 -0.40625l0 -28.875z" fill-rule="nonzero"/><path fill="#000000" fill-opacity="0.0" d="m273.49606 0l253.0079 0l0 90.48819l-253.0079 0z" fill-rule="evenodd"/><path fill="#9900ff" d="m308.2861 65.960625q-3.171875 0 -5.703125 -0.53125q-2.515625 -0.515625 -5.625 -1.40625q-2.046875 -0.578125 -2.75 -0.640625l0.53125 -10.84375l4.75 0l1.28125 7.5625q0.765625 0.8125 2.734375 1.46875q1.96875 0.640625 4.484375 0.640625q3.9375 0 5.890625 -1.71875q1.96875 -1.734375 1.96875 -4.84375q0 -2.0625 -1.171875 -3.546875q-1.171875 -1.5 -3.234375 -2.703125q-2.046875 -1.203125 -5.625 -2.796875q-4.859375 -2.21875 -8.0625 -5.296875q-3.1875 -3.078125 -3.1875 -8.359375q0 -3.28125 1.6875 -5.953125q1.703125 -2.671875 5.078125 -4.21875q3.375 -1.5625 8.25 -1.5625q2.859375 0 5.0625 0.421875q2.203125 0.40625 4.78125 1.109375q1.53125 0.40625 2.296875 0.515625l-0.359375 10.265625l-4.6875 0l-1.234375 -7.203125q-0.53125 -0.53125 -2.125 -1.03125q-1.578125 -0.5 -3.5 -0.5q-3.53125 0 -5.328125 1.609375q-1.78125 1.609375 -1.78125 4.3125q0 2.171875 1.3125 3.765625q1.328125 1.578125 3.203125 2.671875q1.875 1.078125 5.9375 3.0625q3.28125 1.59375 5.625 3.125q2.34375 1.515625 4.046875 3.953125q1.703125 2.421875 1.703125 5.71875q0 3.21875 -1.625 6.15625q-1.609375 2.9375 -5.28125 4.875q-3.65625 1.921875 -9.34375 1.921875z" fill-rule="nonzero"/><path fill="#41da00" d="m342.78082 25.616875l-8.390625 0.28125l-2.296875 12.796875l-4.921875 0l1.0 -16.953125l37.828125 0l0.703125 16.953125l-4.625 0l-2.296875 -12.796875l-8.265625 -0.28125l0 35.59375l8.21875 0.59375l0 3.515625l-24.46875 0l0 -3.515625l7.515625 -0.59375l0 -35.59375z" fill-rule="nonzero"/><path fill="#ff9900" d="m374.91904 26.1325l-4.6875 -0.75l0 -3.640625l31.265625 0l0.75 9.84375l-4.09375 0l-1.9375 -5.796875l-12.671875 -0.53125l0 15.78125l8.15625 -0.171875l0.9375 -4.8125l3.75 0l0 14.1875l-3.75 0l-0.9375 -5.046875l-8.15625 -0.171875l0 16.546875l14.1875 -0.703125l3.40625 -7.515625l4.40625 1.234375l-1.53125 10.734375l-33.734375 0l0 -3.515625l4.640625 -0.59375l0 -35.078125z" fill-rule="nonzero"/><path fill="#ff0000" d="m423.0622 21.5075l8.96875 0l13.546875 39.703125l3.40625 0.59375l0 3.515625l-17.296875 0l0 -3.515625l4.390625 -0.59375l-2.28125 -7.625l-15.1875 0l-2.296875 7.6875l4.75 0.53125l0 3.515625l-14.953125 0l-0.0625 -3.515625l3.515625 -0.59375l13.5 -39.703125zm4.046875 9.90625l-1.0625 -4.578125l-1.109375 4.640625l-5.21875 18.0l12.90625 0l-5.515625 -18.0625z" fill-rule="nonzero"/><path fill="#0249bd" d="m458.87302 26.1325l-6.34375 -0.75l0 -3.640625l18.296875 0l6.984375 25.21875l1.640625 6.859375l1.40625 -6.859375l6.921875 -25.21875l18.125 0l0 3.640625l-6.390625 0.75l4.6875 35.015625l4.765625 0.65625l0 3.515625l-18.71875 0l0 -3.515625l5.15625 -0.59375l-2.578125 -25.6875l-1.109375 -10.734375l-2.171875 9.03125l-8.5 29.6875l-6.21875 0l-8.6875 -28.15625l-2.984375 -10.5625l-0.890625 10.734375l-2.21875 25.6875l5.921875 0.59375l0 3.515625l-16.3125 0l0 -3.515625l4.9375 -0.59375l4.28125 -35.078125z" fill-rule="nonzero"/></g></svg>