<svg version="1.1" viewBox="0.0 0.0 383.76377952755905 100.0" fill="none" stroke="none" stroke-linecap="square" stroke-miterlimit="10" xmlns:xlink="http://www.w3.org/1999/xlink" xmlns="http://www.w3.org/2000/svg"><clipPath id="p.0"><path d="m0 0l383.7638 0l0 100.0l-383.7638 0l0 -100.0z" clip-rule="nonzero"/></clipPath><g clip-path="url(#p.0)"><path fill="#000000" fill-opacity="0.0" d="m0 0l383.7638 0l0 100.0l-383.7638 0z" fill-rule="evenodd"/><path fill="#000000" fill-opacity="0.0" d="m0 0l383.55905 0l0 100.0l-383.55905 0z" fill-rule="evenodd"/><path fill="#000000" d="m35.312393 32.401253q3.9375 0 6.828125 1.4375q2.90625 1.4375 4.546875 4.078125q1.65625 2.640625 1.65625 6.28125q0 3.640625 -1.65625 6.28125q-1.640625 2.640625 -4.546875 4.078125q-2.890625 1.421875 -6.828125 1.421875l-8.96875 0l0 15.140625l-4.703125 0l0 -38.71875l13.671875 0zm-0.703125 19.1875q4.578125 0 6.6875 -1.90625q2.109375 -1.90625 2.109375 -5.484375q0 -3.640625 -2.109375 -5.515625q-2.109375 -1.875 -6.6875 -1.875l-8.265625 0l0 14.78125l8.265625 0zm21.936539 19.53125l0 -29.328125l3.8125 0l0.640625 4.8125q1.234375 -2.703125 3.609375 -4.046875q2.375 -1.359375 5.78125 -1.359375q0.765625 0 1.671875 0.125q0.90625 0.109375 1.5625 0.46875l-0.828125 4.28125q-0.640625 -0.234375 -1.40625 -0.34375q-0.765625 -0.125 -2.171875 -0.125q-1.8125 0 -3.671875 1.0625q-1.84375 1.046875 -3.078125 3.1875q-1.234375 2.140625 -1.234375 5.421875l0 15.84375l-4.6875 0zm35.133698 -29.921875q4.171875 0 7.359375 1.828125q3.203125 1.8125 5.015625 5.25q1.828125 3.421875 1.828125 8.1875q0 4.75 -1.828125 8.1875q-1.8125 3.421875 -5.015625 5.25q-3.1875 1.8125 -7.359375 1.8125q-4.109375 0 -7.34375 -1.8125q-3.21875 -1.828125 -5.03125 -5.25q-1.8125 -3.4375 -1.8125 -8.1875q0 -4.765625 1.8125 -8.1875q1.8125 -3.4375 5.03125 -5.25q3.234375 -1.828125 7.34375 -1.828125zm0 4.046875q-2.984375 0 -5.109375 1.359375q-2.109375 1.34375 -3.25 3.84375q-1.140625 2.484375 -1.140625 6.015625q0 3.453125 1.140625 5.984375q1.140625 2.515625 3.25 3.875q2.125 1.34375 5.109375 1.34375q3.0 0 5.109375 -1.34375q2.109375 -1.359375 3.25 -3.875q1.140625 -2.53125 1.140625 -5.984375q0 -3.53125 -1.140625 -6.015625q-1.140625 -2.5 -3.25 -3.84375q-2.109375 -1.359375 -5.109375 -1.359375zm25.39685 -9.078125q-1.578125 0 -2.546875 -0.96875q-0.96875 -0.96875 -0.96875 -2.5625q0 -1.578125 0.96875 -2.546875q0.96875 -0.96875 2.546875 -0.96875q1.59375 0 2.5625 0.96875q0.96875 0.96875 0.96875 2.546875q0 1.59375 -0.96875 2.5625q-0.96875 0.96875 -2.5625 0.96875zm2.34375 5.625l0 32.3125q0 3.640625 -1.40625 5.75q-1.40625 2.109375 -3.46875 2.984375q-2.046875 0.890625 -4.03125 0.890625q-1.828125 0 -3.34375 -0.5625q-1.53125 -0.546875 -2.53125 -1.375l1.0 -4.453125q0.828125 0.765625 2.0625 1.28125q1.21875 0.53125 2.75 0.53125q1.875 0 3.078125 -1.234375q1.203125 -1.21875 1.203125 -4.28125l0 -31.84375l4.6875 0zm23.18068 29.921875q-4.171875 0 -7.4375 -1.8125q-3.25 -1.828125 -5.0625 -5.25q-1.8125 -3.4375 -1.8125 -8.1875q0 -4.765625 1.8125 -8.1875q1.8125 -3.4375 4.984375 -5.25q3.171875 -1.828125 7.21875 -1.828125q4.109375 0 7.0 1.765625q2.90625 1.765625 4.4375 4.78125q1.53125 3.015625 1.53125 6.78125q0 0.984375 -0.0625 1.8125q-0.0625 0.828125 -0.171875 1.46875l-23.703125 0l0 -4.171875l21.640625 0l-2.40625 0.46875q0 -4.21875 -2.3125 -6.5q-2.3125 -2.296875 -6.078125 -2.296875q-2.875 0 -4.953125 1.328125q-2.078125 1.3125 -3.21875 3.8125q-1.140625 2.484375 -1.140625 6.015625q0 3.453125 1.171875 5.984375q1.171875 2.515625 3.3125 3.84375q2.140625 1.3125 5.125 1.3125q3.234375 0 5.25 -1.234375q2.03125 -1.234375 3.265625 -3.34375l3.6875 2.171875q-1.109375 1.984375 -2.84375 3.453125q-1.734375 1.46875 -4.046875 2.265625q-2.3125 0.796875 -5.1875 0.796875zm33.719635 -30.515625q3.046875 0 5.359375 0.953125q2.328125 0.9375 4.03125 2.703125q1.703125 1.75 2.75 4.15625l-4.453125 2.109375q-0.9375 -2.8125 -2.84375 -4.3125q-1.90625 -1.5 -4.953125 -1.5q-2.9375 0 -5.046875 1.328125q-2.109375 1.3125 -3.234375 3.8125q-1.109375 2.484375 -1.109375 6.015625q0 3.453125 1.109375 5.984375q1.125 2.515625 3.234375 3.84375q2.109375 1.3125 5.046875 1.3125q2.28125 0 3.953125 -0.703125q1.671875 -0.703125 2.75 -2.046875q1.09375 -1.359375 1.5 -3.296875l4.34375 1.53125q-1.0 2.6875 -2.734375 4.625q-1.71875 1.9375 -4.15625 2.96875q-2.4375 1.03125 -5.546875 1.03125q-4.109375 0 -7.34375 -1.8125q-3.21875 -1.828125 -5.03125 -5.25q-1.8125 -3.4375 -1.8125 -8.1875q0 -4.765625 1.8125 -8.1875q1.8125 -3.4375 5.03125 -5.25q3.234375 -1.828125 7.34375 -1.828125zm27.628738 -7.734375l0 29.5625q0 2.171875 1.234375 3.234375q1.234375 1.046875 3.171875 1.046875q1.703125 0 2.921875 -0.578125q1.234375 -0.59375 2.234375 -1.59375l1.640625 3.9375q-1.34375 1.21875 -3.203125 1.9375q-1.84375 0.703125 -4.25 0.703125q-2.21875 0 -4.15625 -0.796875q-1.9375 -0.796875 -3.078125 -2.515625q-1.140625 -1.734375 -1.203125 -4.546875l0 -29.09375l4.6875 -1.296875zm10.671875 8.328125l0 4.046875l-21.234375 0l0 -4.046875l21.234375 0z" fill-rule="nonzero"/><path fill="#9900ff" d="m227.18236 32.401253l0 38.71875l-4.703125 0l0 -38.71875l4.703125 0z" fill-rule="nonzero"/><path fill="#41da00" d="m250.40398 71.71375q-3.640625 0 -6.6875 -1.8125q-3.046875 -1.828125 -4.875 -5.25q-1.8125 -3.4375 -1.8125 -8.1875q0 -4.875 1.9375 -8.28125q1.9375 -3.40625 5.09375 -5.1875q3.171875 -1.796875 6.8125 -1.796875q3.640625 0 6.3125153 1.890625q2.671875 1.875 3.546875 4.984375l-0.59375 0.40625l0 -20.171875l4.703125 0l0 42.8125l-4.109375 0l-0.40625 -7.09375l0.640625 -0.359375q-0.40625 2.578125 -1.96875 4.375q-1.546875 1.78125 -3.8125153 2.734375q-2.25 0.9375 -4.78125 0.9375zm0.46875 -4.109375q2.8125 0 4.890625 -1.40625q2.0937653 -1.40625 3.2343903 -4.015625q1.140625 -2.625 1.140625 -6.140625q0 -3.34375 -1.140625 -5.75q-1.140625 -2.40625 -3.1718903 -3.6875q-2.015625 -1.296875 -4.71875 -1.296875q-4.453125 0 -6.921875 3.0625q-2.453125 3.046875 -2.453125 8.09375q0 5.03125 2.390625 8.09375q2.40625 3.046875 6.75 3.046875z" fill-rule="nonzero"/><path fill="#ff9900" d="m288.00955 71.71375q-4.171875 0 -7.4375 -1.8125q-3.25 -1.828125 -5.0625 -5.25q-1.8125 -3.4375 -1.8125 -8.1875q0 -4.765625 1.8125 -8.1875q1.8125 -3.4375 4.984375 -5.25q3.171875 -1.828125 7.21875 -1.828125q4.109375 0 7.0 1.765625q2.90625 1.765625 4.4375 4.78125q1.53125 3.015625 1.53125 6.78125q0 0.984375 -0.0625 1.8125q-0.0625 0.828125 -0.171875 1.46875l-23.703125 0l0 -4.171875l21.640625 0l-2.40625 0.46875q0 -4.21875 -2.3125 -6.5q-2.3125 -2.296875 -6.078125 -2.296875q-2.875 0 -4.953125 1.328125q-2.078125 1.3125 -3.21875 3.8125q-1.140625 2.484375 -1.140625 6.015625q0 3.453125 1.171875 5.984375q1.171875 2.515625 3.3125 3.84375q2.140625 1.3125 5.125 1.3125q3.234375 0 5.25 -1.234375q2.03125 -1.234375 3.265625 -3.34375l3.6875 2.171875q-1.109375 1.984375 -2.84375 3.453125q-1.734375 1.46875 -4.046875 2.265625q-2.3125 0.796875 -5.1875 0.796875z" fill-rule="nonzero"/><path fill="#ff0000" d="m326.71356 52.166878q0 -3.28125 -1.765625 -5.0625q-1.75 -1.796875 -4.96875 -1.796875q-3.0625 0 -5.171875 1.328125q-2.109375 1.3125 -3.109375 4.25l-3.8125 -2.34375q1.171875 -3.296875 4.34375 -5.3125q3.171875 -2.03125 7.859375 -2.03125q3.171875 0 5.75 1.09375q2.578125 1.078125 4.078125 3.28125q1.5 2.203125 1.5 5.65625l0 14.203125q0 2.109375 2.21875 2.109375q1.125 0 2.171875 -0.296875l-0.234375 3.703125q-1.171875 0.578125 -3.046875 0.578125q-1.703125 0 -3.0625 -0.640625q-1.34375 -0.640625 -2.109375 -1.953125q-0.75 -1.328125 -0.75 -3.328125l0 -0.578125l1.171875 0.171875q-0.703125 2.28125 -2.40625 3.71875q-1.703125 1.4375 -3.8125 2.125q-2.109375 0.671875 -4.171875 0.671875q-2.578125 0 -4.8125 -0.875q-2.21875 -0.890625 -3.546875 -2.671875q-1.3125 -1.796875 -1.3125 -4.4375q0 -3.28125 2.203125 -5.421875q2.203125 -2.140625 6.125 -2.90625l11.609375 -2.28125l0 3.859375l-9.4375 1.9375q-2.875 0.59375 -4.28125 1.65625q-1.40625 1.046875 -1.40625 2.921875q0 1.8125 1.4375 2.96875q1.4375 1.140625 4.078125 1.140625q1.703125 0 3.25 -0.4375q1.5625 -0.453125 2.78125 -1.359375q1.234375 -0.90625 1.9375 -2.28125q0.703125 -1.375 0.703125 -3.25l0 -8.109375z" fill-rule="nonzero"/><path fill="#0249bd" d="m353.35046 71.71375q-4.28125 0 -7.890625 -1.8125q-3.609375 -1.828125 -5.546875 -5.171875l3.984375 -2.875q1.296875 2.703125 3.78125 4.234375q2.5 1.515625 6.015625 1.515625q3.109375 0 4.875 -1.203125q1.765625 -1.203125 1.765625 -3.140625q0 -1.234375 -0.796875 -2.25q-0.796875 -1.03125 -3.015625 -1.5l-7.046875 -1.46875q-4.28125 -0.875 -6.125 -2.921875q-1.84375 -2.0625 -1.84375 -5.109375q0 -2.40625 1.375 -4.40625q1.375 -2.0 3.921875 -3.203125q2.5625 -1.203125 6.015625 -1.203125q4.34375 0 7.328125 1.703125q3.0 1.703125 4.46875 4.8125l-3.9375 2.578125q-1.0 -2.578125 -3.234375 -3.78125q-2.21875 -1.203125 -4.625 -1.203125q-2.109375 0 -3.609375 0.59375q-1.5 0.578125 -2.296875 1.609375q-0.78125 1.03125 -0.78125 2.3125q0 1.296875 0.875 2.390625q0.890625 1.078125 3.296875 1.546875l7.328125 1.515625q4.109375 0.828125 5.75 2.703125q1.640625 1.875 1.640625 4.578125q0 2.75 -1.46875 4.84375q-1.46875 2.078125 -4.109375 3.203125q-2.640625 1.109375 -6.09375 1.109375z" fill-rule="nonzero"/></g></svg>