<svg version="1.1" viewBox="0.0 0.0 262.5826771653543 100.0" fill="none" stroke="none" stroke-linecap="square" stroke-miterlimit="10" xmlns:xlink="http://www.w3.org/1999/xlink" xmlns="http://www.w3.org/2000/svg"><clipPath id="p.0"><path d="m0 0l262.58267 0l0 100.0l-262.58267 0l0 -100.0z" clip-rule="nonzero"/></clipPath><g clip-path="url(#p.0)"><path fill="#000000" fill-opacity="0.0" d="m0 0l262.58267 0l0 100.0l-262.58267 0z" fill-rule="evenodd"/><path fill="#000000" fill-opacity="0.0" d="m0 0l262.58267 0l0 90.48819l-262.58267 0z" fill-rule="evenodd"/><path fill="#ff0000" d="m51.319336 77.8016q-3.0 0 -5.640625 -1.125q-2.640625 -1.109375 -4.3125 -3.8125q-1.671875 -2.6875 -1.671875 -7.375q0 -0.53125 0.03125 -1.140625q0.03125 -0.625 0.09375 -1.203125l4.15625 0.109375q-0.046875 0.59375 -0.078125 1.09375q-0.03125 0.484375 -0.03125 0.953125q0 3.34375 1.046875 4.984375q1.0625 1.65625 2.796875 2.203125q1.734375 0.5625 3.71875 0.5625q2.171875 0 3.984375 -0.59375q1.828125 -0.578125 2.9375 -1.578125l1.53125 4.34375q-1.40625 1.234375 -3.90625 1.90625q-2.484375 0.671875 -4.65625 0.671875zm-9.390625 -50.734375q5.515625 0 9.53125 2.4375q4.015625 2.421875 6.21875 6.890625q2.203125 4.453125 2.203125 10.609375q0 6.15625 -2.203125 10.625q-2.203125 4.453125 -6.21875 6.890625q-4.015625 2.4375 -9.53125 2.4375q-5.515625 0 -9.53125 -2.4375q-4.015625 -2.4375 -6.21875 -6.890625q-2.203125 -4.46875 -2.203125 -10.625q0 -6.15625 2.203125 -10.609375q2.203125 -4.46875 6.21875 -6.890625q4.015625 -2.4375 9.53125 -2.4375zm0 4.390625q-3.984375 0 -6.921875 1.859375q-2.9375 1.84375 -4.515625 5.34375q-1.578125 3.484375 -1.578125 8.34375q0 4.875 1.578125 8.359375q1.578125 3.484375 4.515625 5.34375q2.9375 1.84375 6.921875 1.84375q4.046875 0 6.953125 -1.84375q2.90625 -1.859375 4.484375 -5.34375q1.578125 -3.484375 1.578125 -8.359375q0 -4.859375 -1.578125 -8.34375q-1.578125 -3.5 -4.484375 -5.34375q-2.90625 -1.859375 -6.953125 -1.859375zm38.015472 35.5q-2.828125 0 -5.328125 -1.0625q-2.484375 -1.0625 -4.046875 -3.4375q-1.546875 -2.375 -1.546875 -6.1875l0 -19.234375l4.703125 0l0 18.0q0 4.46875 1.921875 6.140625q1.9375 1.671875 5.46875 1.671875q1.640625 0 3.21875 -0.5625q1.59375 -0.5625 2.84375 -1.75q1.265625 -1.203125 2.0 -3.078125q0.734375 -1.890625 0.734375 -4.46875l0 -15.953125l4.6875 0l0 29.328125l-4.109375 0l-0.28125 -4.453125q-1.53125 2.640625 -4.140625 3.84375q-2.609375 1.203125 -6.125 1.203125zm27.909637 -35.546875q-1.578125 0 -2.546875 -0.96875q-0.96875 -0.96875 -0.96875 -2.5625q0 -1.578125 0.96875 -2.546875q0.96875 -0.96875 2.546875 -0.96875q1.59375 0 2.5625 0.96875q0.96875 0.96875 0.96875 2.546875q0 1.59375 -0.96875 2.5625q-0.96875 0.96875 -2.5625 0.96875zm2.34375 5.625l0 29.328125l-4.6875 0l0 -29.328125l4.6875 0zm8.805679 29.328125l0 -3.578125l15.375 -18.0l3.6875 -3.8125l-5.21875 0.109375l-13.671875 0l0 -4.046875l24.109375 0l0 3.578125l-15.359375 18.0l-3.640625 3.8125l5.6875 -0.109375l13.78125 0l0 4.046875l-24.75 0zm31.322418 0l0 -3.578125l15.375 -18.0l3.6875 -3.8125l-5.21875 0.109375l-13.671875 0l0 -4.046875l24.109375 0l0 3.578125l-15.359375 18.0l-3.640625 3.8125l5.6875 -0.109375l13.78125 0l0 4.046875l-24.75 0zm45.22809 0.59375q-4.171875 0 -7.4375 -1.8125q-3.25 -1.828125 -5.0625 -5.25q-1.8125 -3.4375 -1.8125 -8.1875q0 -4.765625 1.8125 -8.1875q1.8125 -3.4375 4.984375 -5.25q3.171875 -1.828125 7.21875 -1.828125q4.109375 0 7.0 1.765625q2.90625 1.765625 4.4375 4.78125q1.53125 3.015625 1.53125 6.78125q0 0.984375 -0.0625 1.8125q-0.0625 0.828125 -0.171875 1.46875l-23.703125 0l0 -4.171875l21.640625 0l-2.40625 0.46875q0 -4.21875 -2.3125 -6.5q-2.3125 -2.296875 -6.078125 -2.296875q-2.875 0 -4.953125 1.328125q-2.078125 1.3125 -3.21875 3.8125q-1.140625 2.484375 -1.140625 6.015625q0 3.453125 1.171875 5.984375q1.171875 2.515625 3.3125 3.84375q2.140625 1.3125 5.125 1.3125q3.234375 0 5.25 -1.234375q2.03125 -1.234375 3.265625 -3.34375l3.6875 2.171875q-1.109375 1.984375 -2.84375 3.453125q-1.734375 1.46875 -4.046875 2.265625q-2.3125 0.796875 -5.1875 0.796875zm32.14151 0q-4.28125 0 -7.890625 -1.8125q-3.609375 -1.828125 -5.546875 -5.171875l3.984375 -2.875q1.296875 2.703125 3.78125 4.234375q2.5 1.515625 6.015625 1.515625q3.109375 0 4.875 -1.203125q1.765625 -1.203125 1.765625 -3.140625q0 -1.234375 -0.796875 -2.25q-0.796875 -1.03125 -3.015625 -1.5l-7.046875 -1.46875q-4.28125 -0.875 -6.125 -2.921875q-1.84375 -2.0625 -1.84375 -5.109375q0 -2.40625 1.375 -4.40625q1.375 -2.0 3.921875 -3.203125q2.5625 -1.203125 6.015625 -1.203125q4.34375 0 7.328125 1.703125q3.0 1.703125 4.46875 4.8125l-3.9375 2.578125q-1.0 -2.578125 -3.234375 -3.78125q-2.21875 -1.203125 -4.625 -1.203125q-2.109375 0 -3.609375 0.59375q-1.5 0.578125 -2.296875 1.609375q-0.78125 1.03125 -0.78125 2.3125q0 1.296875 0.875 2.390625q0.890625 1.078125 3.296875 1.546875l7.328125 1.515625q4.109375 0.828125 5.75 2.703125q1.640625 1.875 1.640625 4.578125q0 2.75 -1.46875 4.84375q-1.46875 2.078125 -4.109375 3.203125q-2.640625 1.109375 -6.09375 1.109375z" fill-rule="nonzero"/></g></svg>