<svg version="1.1" viewBox="0.0 0.0 960.3543307086615 287.9501312335958" fill="none" stroke="none" stroke-linecap="square" stroke-miterlimit="10" xmlns:xlink="http://www.w3.org/1999/xlink" xmlns="http://www.w3.org/2000/svg"><clipPath id="p.0"><path d="m0 0l960.3543 0l0 287.95013l-960.3543 0l0 -287.95013z" clip-rule="nonzero"/></clipPath><g clip-path="url(#p.0)"><path fill="#000000" fill-opacity="0.0" d="m0 0l960.3543 0l0 287.95013l-960.3543 0z" fill-rule="evenodd"/><path fill="#000000" d="m88.8403 98.236336c8.34243 0 14.537201 1.7276688 18.58435 5.1830063c4.047127 3.4553375 6.0707016 8.647881 6.0707016 15.577637c0 6.9106674 -2.0235748 12.10321 -6.0707016 15.577637c-4.047119 3.4553375 -10.241898 5.183014 -18.58435 5.183014l-29.72351 0l0 -41.521294zm-43.783478 -13.200905l0 116.116425l14.059967 0l0 -48.19333l27.780945 0l31.69471 48.19333l16.69442 0l-33.07267 -50.535263l0 0c5.8885117 -1.4025116 10.96611 -3.8194733 15.2328415 -7.2509155c7.21611 -5.8034363 10.824173 -13.926331 10.824173 -24.368698c0 -10.442368 -3.5794296 -18.708443 -10.738266 -24.798225c-7.158844 -6.108879 -16.65625 -9.163322 -28.492195 -9.163322z" fill-rule="evenodd"/><path fill="#000000" d="m191.9365 123.75045c7.5215607 0 13.592255 2.2908325 18.212097 6.87249c4.378433 4.306366 6.6905823 10.338882 6.936432 18.09755l-52.477295 0c0.5556183 -3.5368805 1.4850311 -6.734497 2.7882538 -9.59285c2.2908325 -4.982544 5.51709 -8.791046 9.678757 -11.425507c4.161667 -2.6344528 9.115585 -3.951683 14.861755 -3.951683zm0.37225342 -12.31321c-8.094269 0 -15.310379 1.8135757 -21.64833 5.4407196c-6.3379517 3.6271515 -11.330048 8.876968 -14.976303 15.749451c-3.6271515 6.8533936 -5.4407196 15.033569 -5.4407196 24.540512c0 9.506943 1.8135681 17.696655 5.4407196 24.569153c3.646225 6.8533936 8.724228 12.093674 15.234024 15.72081c6.5097656 3.6271515 13.926315 5.4407196 22.24968 5.4407196c5.7652435 0 10.957779 -0.7826996 15.577637 -2.3480988c4.6389313 -1.5844879 8.68605 -3.8466797 12.141388 -6.7865753c3.4553528 -2.9398956 6.2997894 -6.40477 8.53334 -10.394638l-11.081879 -6.500229c-2.4626465 4.2189484 -5.7175446 7.559738 -9.764664 10.022369c-4.047119 2.4626465 -9.296936 3.6939697 -15.749451 3.6939697c-5.9752502 0 -11.110519 -1.3172302 -15.405823 -3.9516907c-4.2762146 -2.6344452 -7.588379 -6.471588 -9.936478 -11.511414c-1.8629456 -4.0465393 -2.9808197 -8.685471 -3.3536072 -13.916779l66.35141 0c0.22909546 -1.2790527 0.40089417 -2.7394562 0.5154419 -4.3812256c0.13363647 -1.6417542 0.20045471 -3.4648743 0.20045471 -5.469345c0 -7.502472 -1.5272217 -14.2699585 -4.581665 -20.302475c-3.0544434 -6.051613 -7.4833984 -10.833717 -13.286804 -14.346321c-5.8034515 -3.5126114 -12.809586 -5.2689133 -21.018372 -5.2689133z" fill-rule="evenodd"/><path fill="#000000" d="m288.01062 111.43724c-6.910675 0 -12.924103 1.2026901 -18.040283 3.6080627c-5.097107 2.3862762 -9.029694 5.574341 -11.797791 9.564209c-2.7489777 3.989853 -4.123474 8.390167 -4.123474 13.200912c0 6.1088715 1.8422089 11.2155 5.5266113 15.319916c3.7035217 4.1044006 9.841034 7.0347595 18.412537 8.791061l21.104279 4.3812103c4.4671326 0.95451355 7.483368 2.4626312 9.048767 4.5243835c1.5845032 2.0426636 2.3767395 4.2953033 2.3767395 6.75795c0 3.8562164 -1.7562866 6.98703 -5.2688904 9.392395c-3.5126038 2.4053802 -8.380615 3.6080627 -14.604034 3.6080627c-7.025238 0 -13.038666 -1.5176697 -18.040283 -4.5530243c-4.9825745 -3.0544434 -8.762451 -7.2829285 -11.33963 -12.685471l-11.969574 8.619247c3.8753204 6.7006683 9.421051 11.8645935 16.637146 15.49173c7.2161255 3.6271515 15.100403 5.4407196 23.652832 5.4407196c6.9297485 0 13.029083 -1.1072235 18.297974 -3.321701c5.2879944 -2.233551 9.392426 -5.4311676 12.313232 -9.59285c2.9398804 -4.161667 4.4098206 -9.001053 4.4098206 -14.518127c0 -5.402542 -1.6417542 -9.97464 -4.9252625 -13.716339c-3.2835388 -3.760788 -9.029694 -6.4620667 -17.238495 -8.103806l-21.991974 -4.581665c-4.81073 -0.9354248 -8.094238 -2.4817352 -9.850555 -4.6389313c-1.7563171 -2.1762848 -2.6344604 -4.5530243 -2.6344604 -7.1302032c0 -2.577179 0.78271484 -4.8871 2.348114 -6.929764c1.5844727 -2.061737 3.8753052 -3.6748657 6.872467 -4.8393707c2.9971619 -1.1835938 6.6052246 -1.7753983 10.824188 -1.7753983c4.81073 0 9.4401245 1.2026901 13.888153 3.608055c4.467102 2.4053802 7.6933594 6.1852417 9.678741 11.339615l11.797791 -7.731552c-2.939911 -6.223419 -7.397461 -11.034164 -13.372742 -14.432228c-5.9752197 -3.3980637 -13.305878 -5.0970993 -21.991943 -5.0970993z" fill-rule="evenodd"/><path fill="#000000" d="m469.76196 113.184l0 57.700264c0 7.636093 1.5463257 13.830887 4.6389465 18.584366c3.1116943 4.734375 7.158844 8.161072 12.141388 10.28009c5.001648 2.0999298 10.308746 3.149887 15.921265 3.149887c7.0443115 0 13.172302 -1.1931305 18.383911 -3.579422c5.230713 -2.405365 9.373291 -6.25206 12.427734 -11.540054l0.8590698 13.372726l12.313232 0l0 -87.96786l-14.059998 0l0 47.84971c0 5.1734467 -0.73498535 9.640564 -2.204895 13.401352c-1.4699707 3.741684 -3.4649048 6.815216 -5.9848022 9.220581c-2.5198975 2.4053802 -5.36438 4.161682 -8.533325 5.2689056c-3.1690063 1.1072388 -6.395233 1.6608582 -9.678772 1.6608582c-7.0252075 0 -12.475464 -1.6704102 -16.3508 -5.0111847c-3.8753052 -3.3407898 -5.8129883 -9.468765 -5.8129883 -18.383911l0 -54.00631z" fill-rule="evenodd"/><path fill="#000000" d="m675.59155 111.43724c-8.208801 0 -15.539429 1.8135757 -21.991943 5.4407196c-6.4525146 3.6271515 -11.501892 8.876968 -15.148132 15.749451c-3.6271362 6.8533936 -5.440674 15.033569 -5.440674 24.540512c0 9.506943 1.8135376 17.696655 5.440674 24.569153c3.6462402 6.8533936 8.695618 12.093674 15.148132 15.72081c6.4525146 3.6271515 13.783142 5.4407196 21.991943 5.4407196c6.2234497 0 11.769165 -1.0213165 16.637146 -3.06398c4.868042 -2.0617523 9.029724 -5.0207367 12.485046 -8.876968c3.4553223 -3.8753204 6.1852417 -8.514252 8.189697 -13.916779l-13.029053 -4.5530243c-0.82092285 3.8562164 -2.319458 7.13974 -4.4957886 9.850555c-2.1571655 2.6917267 -4.906189 4.743927 -8.246948 6.156616c-3.3408203 1.39357 -7.302063 2.0903778 -11.883728 2.0903778c-5.8606567 0 -10.910034 -1.3172302 -15.148071 -3.9516907c-4.218933 -2.6344452 -7.4451904 -6.471588 -9.678772 -11.511414c-2.2144775 -5.058914 -3.3217163 -11.043701 -3.3217163 -17.954376c0 -7.0442963 1.1072388 -13.057724 3.3217163 -18.040283c2.2335815 -4.982544 5.459839 -8.791046 9.678772 -11.425507c4.238037 -2.6344528 9.287415 -3.951683 15.148071 -3.951683c6.0897827 0 11.043701 1.4985809 14.861755 4.4957504c3.8180542 2.9780884 6.6625366 7.2829285 8.533386 12.914551l13.372681 -6.328415c-2.1190186 -4.8107452 -4.8775024 -8.972412 -8.275635 -12.485016c-3.3980103 -3.5316925 -7.416504 -6.2329636 -12.055481 -8.103813c-4.619812 -1.870842 -9.984192 -2.8062668 -16.093079 -2.8062668z" fill-rule="evenodd"/><path fill="#000000" d="m773.22784 123.75045c7.5215454 0 13.592224 2.2908325 18.212097 6.87249c4.378418 4.306366 6.6905518 10.338882 6.9364014 18.09755l-52.477295 0c0.55566406 -3.5368805 1.4850464 -6.734497 2.788269 -9.59285c2.2908325 -4.982544 5.51709 -8.791046 9.678772 -11.425507c4.161682 -2.6344528 9.115601 -3.951683 14.861755 -3.951683zm0.37225342 -12.31321c-8.094299 0 -15.310364 1.8135757 -21.648315 5.4407196c-6.3379517 3.6271515 -11.330078 8.876968 -14.976318 15.749451c-3.6271362 6.8533936 -5.440735 15.033569 -5.440735 24.540512c0 9.506943 1.8135986 17.696655 5.440735 24.569153c3.6462402 6.8533936 8.724243 12.093674 15.234009 15.72081c6.5097656 3.6271515 13.926331 5.4407196 22.249695 5.4407196c5.765259 0 10.957764 -0.7826996 15.577637 -2.3480988c4.638916 -1.5844879 8.686035 -3.8466797 12.141357 -6.7865753c3.4553833 -2.9398956 6.2998047 -6.40477 8.533386 -10.394638l-11.081909 -6.500229c-2.4626465 4.2189484 -5.7175293 7.559738 -9.764648 10.022369c-4.047119 2.4626465 -9.296936 3.6939697 -15.749451 3.6939697c-5.975281 0 -11.110535 -1.3172302 -15.405823 -3.9516907c-4.276245 -2.6344452 -7.588379 -6.471588 -9.936462 -11.511414c-1.8629761 -4.0465393 -2.980835 -8.685471 -3.3536377 -13.916779l66.35144 0c0.22906494 -1.2790527 0.4008789 -2.7394562 0.5154419 -4.3812256c0.13360596 -1.6417542 0.20043945 -3.4648743 0.20043945 -5.469345c0 -7.502472 -1.5272217 -14.2699585 -4.581665 -20.302475c-3.0544434 -6.051613 -7.4833984 -10.833717 -13.286804 -14.346321c-5.803467 -3.5126114 -12.80957 -5.2689133 -21.018372 -5.2689133z" fill-rule="evenodd"/><path fill="#000000" d="m869.30194 111.43724c-6.9106445 0 -12.924072 1.2026901 -18.040283 3.6080627c-5.097107 2.3862762 -9.029663 5.574341 -11.7977295 9.564209c-2.7490234 3.989853 -4.123535 8.390167 -4.123535 13.200912c0 6.1088715 1.8422241 11.2155 5.5266113 15.319916c3.7035522 4.1044006 9.841003 7.0347595 18.412598 8.791061l21.104248 4.3812103c4.467102 0.95451355 7.4833374 2.4626312 9.048767 4.5243835c1.5844727 2.0426636 2.376709 4.2953033 2.376709 6.75795c0 3.8562164 -1.7562866 6.98703 -5.26886 9.392395c-3.5126343 2.4053802 -8.380676 3.6080627 -14.604065 3.6080627c-7.0252075 0 -13.038635 -1.5176697 -18.040283 -4.5530243c-4.982544 -3.0544434 -8.76239 -7.2829285 -11.3396 -12.685471l-11.9696045 8.619247c3.8753052 6.7006683 9.421082 11.8645935 16.637146 15.49173c7.2161255 3.6271515 15.100403 5.4407196 23.652832 5.4407196c6.9297485 0 13.029114 -1.1072235 18.298035 -3.321701c5.287964 -2.233551 9.392395 -5.4311676 12.313171 -9.59285c2.9399414 -4.161667 4.409851 -9.001053 4.409851 -14.518127c0 -5.402542 -1.6417236 -9.97464 -4.925293 -13.716339c-3.2835083 -3.760788 -9.029663 -6.4620667 -17.238464 -8.103806l-21.992004 -4.581665c-4.81073 -0.9354248 -8.094238 -2.4817352 -9.850525 -4.6389313c-1.7562866 -2.1762848 -2.6344604 -4.5530243 -2.6344604 -7.1302032c0 -2.577179 0.78271484 -4.8871 2.3480835 -6.929764c1.5844727 -2.061737 3.8753052 -3.6748657 6.8724976 -4.8393707c2.9971924 -1.1835938 6.6052246 -1.7753983 10.824158 -1.7753983c4.81073 0 9.4401245 1.2026901 13.888184 3.608055c4.467102 2.4053802 7.6933594 6.1852417 9.678711 11.339615l11.797791 -7.731552c-2.9398804 -6.223419 -7.397461 -11.034164 -13.372681 -14.432228c-5.975281 -3.3980637 -13.305969 -5.0970993 -21.992004 -5.0970993z" fill-rule="evenodd"/><path fill="#b45f06" d="m554.2152 223.19685l0 0c0 -11.202255 8.411438 -20.283463 18.787415 -20.283463q9.393677 0 18.787415 0q0 10.141724 0 20.283463l0 0c0 11.20224 -8.411438 20.283463 -18.787415 20.283463l0 0c-10.375977 0 -18.787415 -9.081223 -18.787415 -20.283463z" fill-rule="evenodd"/><path stroke="#000000" stroke-width="2.0" stroke-linejoin="round" stroke-linecap="butt" d="m554.2152 223.19685l0 0c0 -11.202255 8.411438 -20.283463 18.787415 -20.283463q9.393677 0 18.787415 0q0 10.141724 0 20.283463l0 0c0 11.20224 -8.411438 20.283463 -18.787415 20.283463l0 0c-10.375977 0 -18.787415 -9.081223 -18.787415 -20.283463z" fill-rule="evenodd"/><path fill="#000000" fill-opacity="0.0" d="m591.79004 202.91339l0 20.283463" fill-rule="evenodd"/><path stroke="#000000" stroke-width="1.0" stroke-linejoin="round" stroke-linecap="butt" d="m591.79004 202.91339l0 20.283463" fill-rule="evenodd"/><path fill="#000000" fill-opacity="0.0" d="m590.3006 205.88588l-30.582703 31.65355" fill-rule="evenodd"/><path stroke="#000000" stroke-width="1.0" stroke-linejoin="round" stroke-linecap="butt" d="m590.3006 205.88588l-30.582703 31.65355" fill-rule="evenodd"/><path fill="#93c47d" d="m579.916 114.32546l11.874023 0l0 97.007866l-11.874023 0z" fill-rule="evenodd"/><path stroke="#000000" stroke-width="2.0" stroke-linejoin="round" stroke-linecap="butt" d="m579.916 114.32546l11.874023 0l0 97.007866l-11.874023 0z" fill-rule="evenodd"/><path fill="#93c47d" d="m597.92114 119.37432l0 0c7.297058 -10.636917 18.578125 -15.586464 25.196838 -11.055122q7.9105835 5.4158173 20.051514 4.665207q-12.558411 10.086227 -21.279907 22.799362l0 0c-7.297058 10.636917 -18.578125 15.586456 -25.196838 11.055115l0 0c-6.6187134 -4.5313416 -6.0687256 -16.827652 1.2283936 -27.464561z" fill-rule="evenodd"/><path stroke="#000000" stroke-width="2.0" stroke-linejoin="round" stroke-linecap="butt" d="m597.92114 119.37432l0 0c7.297058 -10.636917 18.578125 -15.586464 25.196838 -11.055122q7.9105835 5.4158173 20.051514 4.665207q-12.558411 10.086227 -21.279907 22.799362l0 0c-7.297058 10.636917 -18.578125 15.586456 -25.196838 11.055115l0 0c-6.6187134 -4.5313416 -6.0687256 -16.827652 1.2283936 -27.464561z" fill-rule="evenodd"/><path fill="#000000" fill-opacity="0.0" d="m591.79004 142.04199l0 0c0 -6.8246307 3.6019897 -13.369736 10.013672 -18.195473c6.411682 -4.825737 15.107788 -7.536812 24.175293 -7.536812l0 25.732285z" fill-rule="evenodd"/><path fill="#000000" fill-opacity="0.0" d="m591.79004 142.04199l0 0c0 -6.8246307 3.6019897 -13.369736 10.013672 -18.195473c6.411682 -4.825737 15.107788 -7.536812 24.175293 -7.536812" fill-rule="evenodd"/><path stroke="#000000" stroke-width="1.0" stroke-linejoin="round" stroke-linecap="butt" d="m591.79004 142.04199l0 0c0 -6.8246307 3.6019897 -13.369736 10.013672 -18.195473c6.411682 -4.825737 15.107788 -7.536812 24.175293 -7.536812" fill-rule="evenodd"/><path fill="#ffe599" d="m454.7953 155.2336l-23.96466 7.9099426l0 -15.819885zm-17.397858 -38.975647l-10.916229 21.323029l-12.052307 -11.186195zm-41.987976 -16.142464l8.5224 22.242447l-17.0448 0zm-41.99347 16.142464l22.97403 10.136833l-12.052338 11.186195zm-17.392365 38.975647l23.96466 -7.9099426l0 15.819885zm17.392365 38.97055l10.921692 -21.317932l12.052338 11.186188zm41.99347 16.147552l-8.5224 -22.242447l17.0448 0zm41.987976 -16.147552l-22.968536 -10.131744l12.052307 -11.186188zm-71.68091 -38.97055c0 -15.220444 13.293976 -27.55906 29.692932 -27.55906c16.398926 0 29.692902 12.338615 29.692902 27.55906c0 15.220444 -13.293976 27.559052 -29.692902 27.559052c-16.398956 0 -29.692932 -12.338608 -29.692932 -27.559052z" fill-rule="evenodd"/><path stroke="#000000" stroke-width="2.0" stroke-linejoin="round" stroke-linecap="butt" d="m454.7953 155.2336l-23.96466 7.9099426l0 -15.819885zm-17.397858 -38.975647l-10.916229 21.323029l-12.052307 -11.186195zm-41.987976 -16.142464l8.5224 22.242447l-17.0448 0zm-41.99347 16.142464l22.97403 10.136833l-12.052338 11.186195zm-17.392365 38.975647l23.96466 -7.9099426l0 15.819885zm17.392365 38.97055l10.921692 -21.317932l12.052338 11.186188zm41.99347 16.147552l-8.5224 -22.242447l17.0448 0zm41.987976 -16.147552l-22.968536 -10.131744l12.052307 -11.186188zm-71.68091 -38.97055c0 -15.220444 13.293976 -27.55906 29.692932 -27.55906c16.398926 0 29.692902 12.338615 29.692902 27.55906c0 15.220444 -13.293976 27.559052 -29.692902 27.559052c-16.398956 0 -29.692932 -12.338608 -29.692932 -27.559052z" fill-rule="evenodd"/></g></svg>